<?xml version="1.0" encoding="utf-8"?>
<!-- Generator: Adobe Illustrator 18.1.1, SVG Export Plug-In . SVG Version: 6.00 Build 0)  -->
<svg version="1.1" id="레이어_1" xmlns="http://www.w3.org/2000/svg" xmlns:xlink="http://www.w3.org/1999/xlink" x="0px"
	 y="0px" viewBox="0 0 2000 2000" style="enable-background:new 0 0 2000 2000;" xml:space="preserve">
<style type="text/css">
	.st0{fill:#FFFFFF;}
	.st1{fill:#595757;}
	.st2{fill:#F27575;}
</style>
<g>
	<g>
		<g>
			<polygon class="st0" points="728.696,1141.267 734.678,1137.619 682.424,1122.891 676.622,1126.429 487.233,1072.29 
				370.742,1121.957 1131.878,1321.529 1153.729,1262.815 			"/>
			<polygon class="st0" points="1199,868.781 1199,871 1198.192,871 1207.766,865.516 1154.337,850.202 1124.736,863.768 
				1177.812,878.705 			"/>
			<polygon class="st0" points="582.903,1070.813 590.229,1072.874 624.794,1053.189 569.497,1037.217 527.35,1055.186 
				567.458,1066.353 561.82,1069.791 577.366,1074.19 			"/>
			<polygon class="st0" points="1191.529,1085.606 1256.695,1107.242 1265.298,1098.377 1202.073,1077.065 			"/>
			<polygon class="st0" points="1270.03,1103.124 1275.832,1095.897 1212.542,1074.206 1210.438,1076.455 1269.854,1096.482 			"/>
			<polygon class="st0" points="627.665,1012.417 583.691,1031.165 718.834,1070.202 740.364,1060.818 746.631,1062.628 
				765.783,1054.349 			"/>
			<polygon class="st0" points="626.29,1083.018 664.665,1093.812 704.827,1076.307 637.869,1056.966 603.421,1076.584 
				608.46,1078.029 602.906,1081.416 620.673,1086.443 			"/>
			<polygon class="st0" points="805.463,936.612 761.188,955.489 895.584,993.162 918.517,983.166 925.676,985.234 942.172,978.104 
							"/>
			<polygon class="st0" points="1095.779,866.217 1118.455,855.681 874.433,784.932 769.246,831.605 1030.28,907.225 
				1103.088,868.328 			"/>
			<polygon class="st0" points="689.256,986.157 641.617,1006.468 773.164,1046.52 799.489,1035.046 806.053,1036.942 
				825.237,1028.65 			"/>
			<polygon class="st0" points="746.853,961.601 703.108,980.251 832.732,1020.557 862.542,1007.564 869.421,1009.551 
				888.398,1001.348 			"/>
			<polygon class="st0" points="1027.888,935.468 1054.026,924.102 924.605,885.815 881.776,904.076 1009.693,943.425 
				1010.877,942.909 1018.499,945.11 1035.631,937.705 			"/>
			<polygon class="st0" points="867.874,910.003 819.434,930.655 948.917,969.914 979.675,956.509 987.141,958.666 
				1003.084,951.774 			"/>
			<polygon class="st0" points="1141.359,1324.015 1348.108,1378.225 1636.932,1251.464 1367.829,1169.521 1181.867,1215.171 			"/>
			<polygon class="st0" points="1284.156,1100.439 1277,1108.615 1277,1100.061 1267.186,1112.071 1266.822,1101.564 
				1257.649,1110.969 1224.734,1100.048 1183.248,1211.488 1361.75,1167.669 1270.025,1139.713 			"/>
			<polygon class="st0" points="1211.844,1106.663 1037.579,1059.339 1038.422,1060.566 1037.019,1061.53 1037.035,1067.246 
				1028.938,1074.2 1206.027,1122.292 			"/>
			<polygon class="st0" points="1287.243,1093.096 1222.655,1072.75 1222.38,1073.692 1282,1093.856 1282,1100.116 			"/>
			<polygon class="st0" points="1204.889,1125.351 1027.228,1077.104 1027.398,1084.341 1019.497,1091.302 1199.248,1140.506 			"/>
			<polygon class="st0" points="1169.816,1219.59 977.546,1167.378 977.251,1176.627 969.469,1182.833 1163.85,1235.621 			"/>
			<polygon class="st0" points="1176.92,1200.502 987.593,1149.088 987.273,1160.293 980.059,1164.692 1170.954,1216.531 			"/>
			<polygon class="st0" points="1033.774,1063.758 874.774,1172.928 960.195,1197.347 964.525,1194.296 964.308,1182.79 
				974.049,1175.021 974.392,1164.34 984.075,1158.436 984.427,1146.077 995.402,1138.989 995.053,1126.848 1004.395,1118.097 
				1004.71,1109.577 1014.904,1101.646 1014.506,1091.365 1024.112,1082.902 1023.909,1074.233 1033.779,1065.757 			"/>
			<polygon class="st0" points="1162.711,1238.68 967.615,1185.698 967.808,1195.96 964.211,1198.494 1157.142,1253.645 			"/>
			<polygon class="st0" points="1198.109,1143.567 1017.871,1094.229 1018.217,1103.189 1009.869,1109.682 1192.189,1159.475 			"/>
			<polygon class="st0" points="1184.472,1180.211 998.387,1129.676 998.704,1140.726 989.972,1146.366 1178.058,1197.443 			"/>
			<polygon class="st0" points="1191.05,1162.535 1007.854,1112.503 1007.594,1119.555 999.937,1126.729 1185.61,1177.151 			"/>
			<path class="st1" d="M1282.567,1133.363l77.865-217.679l-147.585-42.789l24.727-11.416l-14.415-4.164l-10.802,5.043l0.031-0.114
				l-53.403-14.719l11.531-5.415l-14.203-4.102l-24.439,11.409l-256.433-74.347l-1.71-0.497L740.633,833.63l169.066,47.938
				l-569,242.595l1006.578,263.928l1.642,0.43l316.057-138.715L1282.567,1133.363z M1269.936,1139.713l91.808,27.956l-178.507,43.82
				l41.474-111.44l32.894,10.921l9.13-9.406l0.45,10.508l9.814-12.01v8.554l7.156-8.176L1269.936,1139.713z M1037.019,1061.53
				l1.403-0.963l-0.843-1.228l174.265,47.324l-5.817,15.629l-177.089-48.092l8.097-6.954L1037.019,1061.53z M1009.869,1109.682
				l8.348-6.493l-0.347-8.96l180.239,49.337l-5.921,15.908L1009.869,1109.682z M1191.05,1162.535l-5.44,14.617l-185.674-50.423
				l7.657-7.174l0.261-7.052L1191.05,1162.535z M1019.497,1091.302l7.901-6.962l-0.17-7.236l177.661,48.246l-5.64,15.156
				L1019.497,1091.302z M1023.909,1074.233l0.203,8.669l-9.606,8.463l0.398,10.281l-10.194,7.931l-0.315,8.52l-9.342,8.75
				l0.349,12.141l-10.975,7.088l-0.352,12.359l-9.683,5.904l-0.343,10.681l-9.741,7.769l0.217,11.506l-4.33,3.05l-85.422-24.419
				l159-109.17l0.006,2L1023.909,1074.233z M967.808,1195.96l-0.193-10.262l195.097,52.982l-5.57,14.965l-192.931-55.151
				L967.808,1195.96z M969.469,1182.833l7.781-6.206l0.296-9.25l192.269,52.213l-5.966,16.03L969.469,1182.833z M980.059,1164.692
				l7.214-4.398l0.32-11.205l189.327,51.414l-5.965,16.029L980.059,1164.692z M989.972,1146.366l8.732-5.64l-0.317-11.05
				l186.085,50.534l-6.413,17.232L989.972,1146.366z M1265.298,1098.377l-8.603,8.865l-65.166-21.636l10.543-8.541
				L1265.298,1098.377z M1210.438,1076.455l2.104-2.249l63.29,21.691l-5.802,7.227l-0.176-6.642L1210.438,1076.455z M1282,1100.116
				v-6.26l-59.881-20.165l0.536-0.941l64.849,20.346L1282,1100.116z M1154.444,849.645l53.537,15.871l-9.789,5.484H1199v-2.219
				l-21.161,9.785l-52.949-15.077L1154.444,849.645z M370.742,1121.957l116.491-49.666l189.389,54.139l5.802-3.539l5.276-3.217
				l-186.221-53.457l11.555-4.927l42.927,12.075l5.861-3.574l5.637-3.438l-40.107-11.167l42.147-17.969l55.296,15.972
				l-34.565,19.685l-7.326-2.061l-5.536,3.376l-5.893,3.594l25.635,7.169l5.798-3.536l5.554-3.387l-5.039-1.445l34.448-19.619
				l66.958,19.341l-40.162,17.505l-38.375-10.794l-5.617,3.425l-5.9,3.598l50.6,14.102l89.881-39.025l-8.623-2.491l-6.267-1.81
				l-21.53,9.384l-135.143-39.036l43.974-18.748l138.118,41.932l7.588,2.304l40.952-17.322l-8.27-2.389l-6.564-1.896l-26.325,11.474
				l-131.547-40.052l47.639-20.311l135.981,42.493l7.768,2.427l44.379-19.226l-7.963-2.3l-6.879-1.987l-29.81,12.993
				l-129.624-40.305l43.745-18.651l141.544,39.748l7.794,2.188l37.119-16.097l-7.634-2.205l-7.159-2.068l-22.933,9.996
				l-134.396-37.673l44.275-18.877l136.709,41.492l7.291,2.213l44.845-19.581l-7.167-2.07l-7.466-2.157l-30.757,13.406
				l-129.483-39.259l48.44-20.652l135.21,41.771l6.974,2.155l15.44-6.796l-6.999-2.022l-7.623-2.202l-1.183,0.516l-127.917-39.349
				l42.829-18.26l129.421,38.287l-26.138,11.366l7.743,2.237l6.974,2.015l39.862-17.376l-52.187-15.118l-261.035-75.621
				l105.188-46.673l244.021,70.749l-22.675,10.536l7.308,2.111l7.003,2.023l10.202-4.763l52.849,15.077l-10.342,4.911l14.136,4.083
				l22.491-10.5l148.328,43.005l-60.09,167.988l-66.312-21.059l-3.811,3.389l-5.937-2.035l-4.553,4.867l-5.637-1.9l-16.549,13.405
				l30.583,10.154l-2.468,6.63l-178.246-48.405l-1.836-2.674L862.606,1169.45l-122.637-35.057l-5.29,3.227l-5.982,3.648
				l425.033,121.548l-21.851,58.714L370.742,1121.957z M1348.108,1378.225l-206.749-54.21l40.508-108.844l185.962-45.65
				l269.104,81.943L1348.108,1378.225z"/>
			<g>
				<polygon class="st0" points="833.005,1031.077 825.237,1028.649 806.053,1036.942 814.323,1039.331 773.371,1056.653 
					765.783,1054.349 746.631,1062.628 755.254,1065.118 665.373,1104.144 614.773,1090.041 620.673,1086.443 602.906,1081.417 
					597.108,1084.953 571.474,1077.783 577.366,1074.19 561.82,1069.791 555.959,1073.365 513.033,1061.29 501.478,1066.217 
					687.699,1119.673 682.424,1122.891 734.678,1137.619 739.968,1134.392 862.605,1169.45 1018.92,1062.123 859.492,1019.602 				
					"/>
				<polygon class="st2" points="1199.427,879.159 1176.936,889.659 1162.8,885.576 1173.142,880.665 1120.293,865.588 
					1110.091,870.351 1103.088,868.328 1030.28,907.225 1082.468,922.344 1042.605,939.719 1035.631,937.705 1018.499,945.111 
					1025.498,947.132 1010.058,953.929 1003.084,951.774 987.141,958.666 994.308,960.735 949.462,980.316 942.172,978.104 
					925.676,985.234 933.311,987.439 896.192,1003.536 888.398,1001.348 869.421,1009.55 877.385,1011.851 859.492,1019.602 
					1018.92,1062.123 1032.901,1052.524 1034.737,1055.198 1212.982,1103.603 1215.45,1096.973 1184.867,1086.819 
					1201.416,1073.413 1207.052,1075.314 1211.606,1070.447 1217.542,1072.482 1221.353,1069.092 1287.665,1090.152 
					1347.755,922.164 				"/>
			</g>
		</g>
		<g id="XMLID_8_">
			<polygon class="st0" points="797.227,963.606 759.981,982.284 758.516,1101.831 844.126,1129.434 883,1108.448 883,991.209 			
				"/>
			<path class="st1" d="M797.174,957.045l-43.006,21.495l-1.66,127.689l92.768,29.807L890,1112.027V986.798L797.174,957.045z
				 M796.562,970.168l69.159,22.565l-22,12.566l-68.886-24.06L796.562,970.168z M765.388,990.817l72.807,25.43l-1.363,104.845
				l-72.488-23.656L765.388,990.817z M847.733,1119.036l0.705-103.532L872,1001.681v103.186L847.733,1119.036z"/>
		</g>
	</g>
</g>
</svg>
