<?xml version="1.0" encoding="utf-8"?>
<!-- Generator: Adobe Illustrator 18.1.1, SVG Export Plug-In . SVG Version: 6.00 Build 0)  -->
<svg version="1.1" id="레이어_1" xmlns="http://www.w3.org/2000/svg" xmlns:xlink="http://www.w3.org/1999/xlink" x="0px"
	 y="0px" viewBox="0 0 2000 2000" style="enable-background:new 0 0 2000 2000;" xml:space="preserve">
<style type="text/css">
	.st0{fill:#FFFFFF;}
	.st1{fill:#F27575;}
	.st2{fill:#595757;}
</style>
<g>
	<polygon class="st0" points="1052.623,906.963 1092.237,889.969 970.622,853.989 921.12,874.705 1044.968,916.506 
		1061.556,909.628 	"/>
	<polygon class="st0" points="1071.648,811.434 1021.838,832.546 1118.633,860.459 1143.412,848.592 1152.545,850.854 
		1171.521,841.526 	"/>
	<polygon class="st0" points="629.797,1182.161 709.143,1205.342 839.851,1148.221 780.334,1130.835 789.015,1127.048 
		769.241,1121.224 	"/>
	<polygon class="st0" points="1125.368,788.689 1088.011,804.529 1178.425,831.766 1194.786,823.865 1201.838,826.629 
		1216.791,819.28 	"/>
	<polygon class="st0" points="608.476,1064.501 531.643,1040.086 373.544,1107.042 494.954,1142.635 637.196,1080.408 
		613.202,1062.031 	"/>
	<polygon class="st0" points="763.599,1030.738 891.187,976.116 777.655,935.92 630.739,998.122 753.058,1038.97 770.262,1032.794 	
		"/>
	<polygon class="st0" points="1236.065,804.059 1244.804,799.88 1158.229,774.995 1142,782.058 1142,782.061 1231.212,812.436 
		1243.067,806.489 	"/>
	<polygon class="st0" points="1242.925,985 1238.162,994.976 1357.608,995.858 1367.62,969.531 1243.079,966.897 1240.854,969.853 
		1236.12,985 	"/>
	<polygon class="st0" points="1093.647,962.372 1070.591,961.752 1048.313,985.63 1096.805,986.931 1113.294,956.81 
		1098.647,956.516 	"/>
	<polygon class="st0" points="1294.983,843.206 1288.835,858.64 1410.252,860.552 1414.984,848.533 1307.395,819.994 1302.765,830 
		1295.785,830 1288.96,845.26 	"/>
	<polygon class="st0" points="1256.463,939.327 1250.112,955.274 1372.224,957.282 1382.464,931.129 1255.696,928.373 
		1251.47,939.217 	"/>
	<polygon class="st0" points="1281.202,876.737 1277.902,886.532 1398.985,889.168 1406.293,870.603 1279.131,868.227 
		1275.868,876.601 	"/>
	<polygon class="st0" points="1236.227,960.164 1204.814,959.086 1200.275,965.765 1122.353,963.6 1108.35,987.857 1224.84,994.831 
		1230.216,985 1236.12,985 1240.854,968 1233.367,968 	"/>
	<polygon class="st0" points="1268.069,912.592 1265.336,919.737 1385.892,922.424 1395.134,898.949 1268.236,896.188 
		1261.897,912.458 	"/>
	<polygon class="st0" points="1086.287,862.916 1005.213,839.548 987.035,847.292 1054.514,867.201 	"/>
	<polygon class="st0" points="801.009,1076.248 895.162,1103.52 928.229,1086.157 833.489,1059.198 	"/>
	<polygon class="st0" points="1016.862,960.369 962.32,983.553 1033.651,984.76 1056.129,961.477 	"/>
	<polygon class="st0" points="1230,1002.018 1102.924,998.485 937.092,993.892 749.957,1075.086 780.434,1081.575 831.903,1054.578 
		939.293,1085.538 903.557,1104.433 1224.836,1165.055 1245.796,1108.556 1249.666,1109.606 1255.237,1097.968 1264.139,1100.038 
		1266.788,1094.484 1273.291,1096.155 1274.906,1092.86 1283.195,1094.654 1284.647,1092.005 1317.031,1098.599 1352.757,1005.436 
		1230,1002.093 	"/>
	<polygon class="st0" points="1275.761,1096.449 1314.897,1105.165 1315.495,1103.883 1276.273,1095.338 	"/>
	<polygon class="st0" points="1254.056,1110.548 1308.1,1122.931 1311.127,1115.045 1257.348,1102.663 	"/>
	<polygon class="st0" points="933.668,1270.939 1018.675,1295.773 1148.871,1238.502 1096.869,1223.311 1104.535,1219.959 
		1072.401,1210.499 	"/>
	<polygon class="st0" points="857.483,1153.372 726.497,1210.413 815.773,1236.494 946.456,1179.384 887.927,1162.267 
		896.257,1158.627 865.909,1149.69 	"/>
	<polygon class="st0" points="833.106,1241.56 917.765,1266.292 1048.348,1209.134 986.626,1191.181 994.701,1187.616 
		971.902,1180.903 	"/>
	<polygon class="st0" points="1093.599,865.717 1063.45,869.666 1077.188,873.565 	"/>
	<polygon class="st0" points="1037.7,1301.332 1117.798,1324.73 1247.973,1267.457 1189.413,1250.345 1196.858,1247.146 
		1176.057,1241.02 	"/>
	<polygon class="st0" points="1232.723,1358.306 1331.463,1387.154 1460.59,1329.571 1386.165,1307.88 1393.065,1304.927 
		1370.199,1298.192 	"/>
	<polygon class="st0" points="1135.143,1329.798 1215.333,1353.227 1346.314,1296.032 1289.74,1279.657 1296.793,1276.576 
		1273.143,1269.611 	"/>
	<polygon class="st0" points="1268.763,1100.254 1312.924,1110.423 1313.615,1108.497 1269.698,1098.126 	"/>
	<polygon class="st0" points="648.773,1079.973 727.139,1042.551 615.011,1004.817 547.424,1033.402 621.488,1057.7 
		613.202,1062.031 637.196,1080.408 642.442,1078.114 	"/>
	<polygon class="st0" points="1014.158,948.831 1103.112,951.287 1098.647,956.516 1113.294,956.81 1116.054,951.771 
		1207.644,954.337 1204.814,958.639 1236.227,959.269 1244.402,939.065 1251.47,939.217 1255.696,928.373 1248.155,928.208 
		1254.932,912.306 1261.897,912.458 1268.236,896.188 1261.662,896.046 1269.58,876.441 1275.868,876.601 1279.131,868.227 
		1272.52,868.104 1282.956,842.797 1288.96,845.26 1295.785,830 1290.427,830 1294.721,818 1294.715,818 1261.224,806.506 
		1260.962,805.563 1251.022,809.871 1242.818,806.705 1230.714,812.544 1236.071,814.303 1222.693,821.28 1216.791,819.293 
		1201.838,826.635 1209.214,829.521 1179.365,843.891 1171.521,841.527 1152.545,850.854 1161.125,852.977 1119.677,872.526 
		1099.92,866.828 1082.469,875.394 1124.359,887.76 1068.924,911.828 1061.556,909.628 1044.968,916.506 1052.385,919.008 
		1037.452,925.492 1029.564,922.891 1009.594,931.169 1018.463,933.735 939.8,967.889 929.302,964.457 912.02,971.622 
		922.56,975.374 847.439,1007.989 862.439,1014.304 	"/>
	<polygon class="st0" points="923.531,962.569 1002.535,929.126 1009.594,931.169 1029.564,922.891 905.163,881.878 
		793.123,929.286 912.02,971.622 929.302,964.457 	"/>
	<polygon class="st0" points="720.3,1113.293 658.468,1095.231 667.527,1091.271 651.216,1086.467 511.936,1147.655 
		612.535,1177.119 752.323,1116.241 729.162,1109.421 	"/>
	<polygon class="st0" points="1346.066,1252.516 1339.314,1250.631 1330.039,1279.924 1378.986,1294.349 1370.199,1298.192 
		1393.065,1304.927 1401.989,1301.389 1477.99,1324 1478.006,1324 1559.131,1287.752 1354.243,1229.114 	"/>
	<polygon class="st1" points="1330.039,1279.924 1339.314,1250.631 1335.074,1249.445 1344.214,1223.431 1282.907,1219.727 
		1277.983,1232.569 1267.159,1229.396 1306.709,1126.533 1255.555,1114.88 1232.175,1178.011 890.641,1111.088 895.98,1108.284 
		797.324,1080.128 777.034,1090.158 716.348,1077.351 862.439,1014.304 847.439,1007.989 781.981,1036.409 770.262,1032.794 
		753.058,1038.97 759.101,1040.986 742.884,1047.849 727.139,1042.551 648.773,1079.973 659.1,1083.006 651.216,1086.467 
		667.527,1091.271 675.456,1087.808 737.167,1105.923 729.162,1109.421 752.323,1116.241 760.372,1112.738 777.294,1117.705 
		769.241,1121.224 789.015,1127.048 797.102,1123.521 874.082,1146.12 865.909,1149.69 896.257,1158.627 904.466,1155.041 
		980.205,1177.274 971.902,1180.903 994.701,1187.616 1002.978,1183.961 1080.842,1206.819 1072.401,1210.499 1104.535,1219.959 
		1112.999,1216.261 1184.385,1237.391 1176.057,1241.02 1196.858,1247.146 1205.52,1243.424 1281.696,1265.881 1273.143,1269.611 
		1296.793,1276.576 1305.607,1272.722 	"/>
	<path class="st2" d="M1358,1218.109v-0.005l9.776-28.375l-12.902,2.721l-9.407,27.277l-61.425-4.961L1322.313,1113h0.057
		l106.05-273.471l-271.578-77.131l-30.606,13.253l-52.762,22.982L1008,826.909v0.027l-100.692,42.235l-568.465,240.367
		l994.001,290.625l259.537-114.956L1358,1218.109z M1308.1,1122.931l-54.043-12.382l3.292-7.885l53.779,12.382L1308.1,1122.931z
		 M1312.924,1110.423l-44.161-10.169l0.935-2.128l43.918,10.372L1312.924,1110.423z M1314.897,1105.165l-39.136-8.716l0.513-1.111
		l39.222,8.545L1314.897,1105.165z M1317.031,1098.599l-32.383-6.593l-1.453,2.649l-8.289-1.794l-1.615,3.295l-6.503-1.672
		l-2.649,5.554l-8.902-2.07l-5.57,11.637l-3.87-1.049l-20.958,56.499l-321.275-60.622l35.743-18.895l-107.376-30.96l-51.441,26.997
		l-30.42-6.489l187.247-81.194l165.607,4.593l127.076,3.533v0.075l122.757,3.343L1317.031,1098.599z M895.162,1103.52
		l-94.153-27.272l32.48-17.05l94.741,26.96L895.162,1103.52z M962.32,983.553l54.543-23.184l39.267,1.108l-22.478,23.283
		L962.32,983.553z M1005.213,839.548l81.074,23.368l-31.773,4.286l-67.479-19.91L1005.213,839.548z M1093.599,865.717l-16.411,7.848
		l-13.738-3.899L1093.599,865.717z M1477.99,1324l-76-22.611l-8.924,3.681l71.17,20.885l-71.17-20.991l-6.901,2.935l74.425,21.68
		l-129.127,57.579l-98.74-28.945L1370.198,1298h0.001l8.787-3.747l-48.946-14.377l-24.329-7.178l-8.71,3.865v0.006l-7.156,3.084
		l56.522,16.376l-131.007,57.196l-80.204-23.429l137.994-60.186l8.549-3.73l-76.177-22.457l-8.663,3.722l-7.445,3.199l58.559,17.111
		l-130.176,57.273l-80.097-23.397l138.357-60.312l8.328-3.629l-71.385-21.13l-8.465,3.698l-7.666,3.351l52.002,15.192
		l-130.196,57.27l-85.008-24.834l138.734-60.44l8.441-3.68l-77.864-22.858l-8.277,3.656l-8.075,3.565l61.723,17.953l-130.584,57.158
		l-84.659-24.733l138.796-60.656l8.303-3.629l-75.739-22.233l-8.209,3.586l-8.33,3.64l58.529,17.117l-130.683,57.11l-89.276-26.081
		l130.986-57.041l8.426-3.682l8.173-3.57l-76.98-22.599l-8.086,3.527l-8.681,3.787l59.517,17.386l-130.709,57.121l-79.346-23.181
		l139.444-60.937l8.053-3.519l-16.921-4.967l-8.05,3.503l-139.788,60.878l-100.599-29.464l139.28-61.188l7.884-3.461l-10.327-3.033
		l-6.331-1.859l-5.245,2.294l-142.242,62.227l-121.41-35.593l158.1-66.956l76.832,24.415l4.726-2.47l8.286-4.331l-74.064-24.297
		l67.587-28.586l112.128,37.734l15.745,5.298l16.217-6.863l-6.044-2.016l-122.319-40.848l146.916-62.203l113.533,40.196
		l-127.589,54.622l6.663,2.056l11.719,3.616l65.457-28.42l75.122-32.615l-10.54-3.752l-118.898-42.335l112.04-47.409l124.401,41.014
		l7.888,2.601l14.933-6.484l-7.417-2.502L921.12,874.705l49.502-20.716l121.615,35.98l-39.614,16.994l8.933,2.665l7.368,2.2
		l55.435-24.068l-41.89-12.366l17.452-8.566l19.756,5.698l41.448-19.549l-8.58-2.123l-9.133-2.262l-24.779,11.867l-96.795-27.913
		l49.81-21.112l99.873,30.092l7.845,2.363l29.849-14.372l-7.375-2.889l-7.052-2.764l-16.361,7.901l-90.414-27.237l37.357-15.84
		l91.423,30.591l5.902,1.973l13.378-7.004l-4.859-1.813L1142,782.061v-0.003l16.229-7.063l86.825,24.885l-8.864,4.179l6.691,2.43
		l8.173,2.951l9.924-4.74l0.255,1.806L1294.715,818h0.006l-4.294,12h5.358h6.98l4.63-10.006l107.588,29.668l-4.732,11.455
		l-121.417-2.194l6.149-15.576l-6.023-0.273l-6.005-0.241l-10.436,25.289l6.611,0.114l127.163,2.372l-7.308,18.562l-121.084-2.637
		l3.301-9.795l-5.334-0.136l-6.288-0.16l-7.919,19.605l6.574,0.141l126.898,2.761l-9.242,23.475l-120.556-2.686l2.734-7.146
		l-6.172-0.134l-6.965-0.152l-6.778,15.902l7.541,0.166l126.768,2.756l-10.239,26.153l-122.112-2.008l6.351-15.947l-4.994-0.109
		l-7.068-0.152l-8.175,20.204l-2.86,7.068l7.488,0.123l2.225,0.037l124.541,2.235l-10.012,25.528l-119.446,0.716l4.763-9.976h-6.806
		h-5.904l-5.376,9.803l-116.49-5.405l14.003-25.112l77.922,1.654l4.539-7.102l2.83-4.402l-91.59-2.616l-2.759,5.014l-16.489,30.109
		l-48.492-1.307l22.278-23.881l23.056,0.618l5-5.857l4.465-5.229l-88.954-2.457l-151.719,65.474l-146.091,63.046l60.686,12.807
		l20.29-10.03l98.656,28.156l-5.339,2.804l341.534,66.924l23.379-63.132l51.154,11.653l-39.55,102.864l10.825,3.172l4.923-12.842
		l61.308,3.704l-9.14,26.014l4.24,1.186l6.751,1.885l8.177-23.614l204.888,58.85L1478.006,1324H1477.99z"/>
	<polygon class="st2" points="939.8,967.889 1018.463,933.735 1009.594,931.169 1002.535,929.126 923.531,962.569 929.302,964.457 	
		"/>
	<polygon class="st2" points="667.527,1091.271 658.468,1095.231 720.3,1113.293 729.162,1109.421 737.167,1105.923 
		675.456,1087.808 	"/>
</g>
</svg>
