<?xml version="1.0" encoding="utf-8"?>
<!-- Generator: Adobe Illustrator 18.1.1, SVG Export Plug-In . SVG Version: 6.00 Build 0)  -->
<svg version="1.1" id="레이어_1" xmlns="http://www.w3.org/2000/svg" xmlns:xlink="http://www.w3.org/1999/xlink" x="0px"
	 y="0px" viewBox="0 0 640 480" enable-background="new 0 0 640 480" xml:space="preserve">
<g>
	<g>
		<g>
			<g>
				<polygon fill="#FFFFFF" points="246.8,246.2 247.9,245.5 237.8,242.6 236.6,243.3 199.7,232.8 177.1,242.4 325.3,281.3 
					329.6,269.9 				"/>
				<polygon fill="#FFFFFF" points="338.2,193.1 338.2,193.4 338.2,193.4 340.1,192.4 329.7,189.5 323.9,192.1 334.2,195 				"/>
				<polygon fill="#FFFFFF" points="218.4,232.5 219.8,232.9 226.5,229 215.8,225.9 207.6,229.4 215.4,231.6 214.3,232.3 
					217.3,233.1 				"/>
				<polygon fill="#FFFFFF" points="336.9,235.4 349.6,239.6 351.3,237.8 339,233.7 				"/>
				<polygon fill="#FFFFFF" points="352.2,238.8 353.4,237.4 341,233.1 340.6,233.6 352.2,237.5 				"/>
				<polygon fill="#FFFFFF" points="227.1,221.1 218.5,224.8 244.9,232.4 249.1,230.5 250.3,230.9 254,229.3 				"/>
				<polygon fill="#FFFFFF" points="226.8,234.9 234.3,237 242.1,233.6 229.1,229.8 222.4,233.6 223.4,233.9 222.3,234.5 
					225.7,235.5 				"/>
				<polygon fill="#FFFFFF" points="261.7,206.3 253.1,210 279.3,217.4 283.8,215.4 285.1,215.8 288.4,214.4 				"/>
				<polygon fill="#FFFFFF" points="318.3,192.6 322.7,190.6 275.2,176.8 254.7,185.9 305.5,200.6 319.7,193 				"/>
				<polygon fill="#FFFFFF" points="239.1,216 229.8,219.9 255.4,227.7 260.6,225.5 261.8,225.9 265.6,224.3 				"/>
				<polygon fill="#FFFFFF" points="250.3,211.2 241.8,214.8 267,222.7 272.8,220.2 274.2,220.5 277.9,218.9 				"/>
				<polygon fill="#FFFFFF" points="305.1,206.1 310.1,203.9 284.9,196.4 276.6,200 301.5,207.7 301.7,207.6 303.2,208 306.6,206.6 
									"/>
				<polygon fill="#FFFFFF" points="273.9,201.2 264.5,205.2 289.7,212.8 295.7,210.2 297.1,210.6 300.2,209.3 				"/>
				<polygon fill="#FFFFFF" points="249,244.9 272.9,251.7 306,228.9 306.4,229.4 341.1,238.9 341.6,237.6 335.6,235.6 338.9,233 
					340,233.4 340.8,232.4 342,232.8 342.7,232.1 355.7,236.2 367.4,203.5 338.5,195.1 334.1,197.2 331.3,196.4 333.4,195.4 
					323.1,192.5 321.1,193.4 319.7,193 305.5,200.6 315.7,203.6 307.9,206.9 306.6,206.6 303.2,208 304.6,208.4 301.6,209.7 
					300.2,209.3 297.1,210.6 298.5,211 289.8,214.9 288.4,214.4 285.1,215.8 286.6,216.2 279.4,219.4 277.9,218.9 274.2,220.5 
					275.7,221 267.1,224.7 265.6,224.3 261.8,225.9 263.5,226.3 255.5,229.7 254,229.3 250.3,230.9 252,231.4 234.4,239 
					224.6,236.2 225.7,235.5 222.3,234.5 221.1,235.2 216.2,233.8 217.3,233.1 214.3,232.3 213.1,233 204.8,230.6 202.5,231.6 
					238.8,242 237.8,242.6 247.9,245.5 				"/>
				<polygon fill="#FFFFFF" points="327.2,281.8 367.4,292.4 423.7,267.7 371.3,251.7 335.1,260.6 				"/>
				<polygon fill="#FFFFFF" points="355,238.3 353.6,239.8 353.6,238.2 351.7,240.5 351.6,238.5 349.8,240.3 343.4,238.2 
					335.3,259.9 370.1,251.3 352.2,245.9 				"/>
				<polygon fill="#FFFFFF" points="340.9,239.5 306.9,230.2 307.1,230.5 306.8,230.7 306.8,231.8 305.3,233.1 339.8,242.5 				"/>
				<polygon fill="#FFFFFF" points="355.7,236.8 343.1,232.9 343.1,233 354.8,237 354.8,238.2 				"/>
				<polygon fill="#FFFFFF" points="339.5,243.1 304.9,233.7 305,235.1 303.4,236.5 338.4,246.1 				"/>
				<polygon fill="#FFFFFF" points="332.7,261.5 295.3,251.3 295.2,253.1 293.7,254.3 331.5,264.6 				"/>
				<polygon fill="#FFFFFF" points="334.1,257.7 297.2,247.7 297.1,249.9 295.7,250.8 332.9,260.9 				"/>
				<polygon fill="#FFFFFF" points="306.2,231.1 275.2,252.4 291.9,257.1 292.7,256.5 292.7,254.3 294.6,252.8 294.6,250.7 
					296.5,249.5 296.6,247.1 298.7,245.8 298.7,243.4 300.5,241.7 300.5,240 302.5,238.5 302.5,236.5 304.3,234.8 304.3,233.1 
					306.2,231.5 				"/>
				<polygon fill="#FFFFFF" points="331.3,265.2 293.3,254.9 293.4,256.9 292.7,257.4 330.2,268.1 				"/>
				<polygon fill="#FFFFFF" points="338.2,246.7 303.1,237 303.2,238.8 301.5,240.1 337.1,249.8 				"/>
				<polygon fill="#FFFFFF" points="335.6,253.8 299.3,243.9 299.4,246.1 297.7,247.2 334.3,257.1 				"/>
				<polygon fill="#FFFFFF" points="336.8,250.3 301.2,240.6 301.1,242 299.6,243.4 335.8,253.2 				"/>
				<path fill="#595757" d="M354.7,244.7l15.2-42.4l-28.7-8.3l4.8-2.2l-2.8-0.8l-2.1,1l0,0l-10.4-2.9l2.2-1.1l-2.8-0.8l-4.8,2.2
					l-50-14.5l-0.3-0.1l-25.9,11.5l32.9,9.3l-110.8,47.3l196.1,51.4l0.3,0.1l61.6-27L354.7,244.7z M352.2,245.9l17.9,5.4l-34.8,8.5
					l8.1-21.7l6.4,2.1l1.8-1.8l0.1,2l1.9-2.3v1.7l1.4-1.6L352.2,245.9z M306.8,230.7l0.3-0.2l-0.2-0.2l33.9,9.2l-1.1,3l-34.5-9.4
					l1.6-1.4L306.8,230.7z M301.5,240.1l1.6-1.3l-0.1-1.7l35.1,9.6l-1.2,3.1L301.5,240.1z M336.8,250.3l-1.1,2.8l-36.2-9.8l1.5-1.4
					l0.1-1.4L336.8,250.3z M303.4,236.5l1.5-1.4l0-1.4l34.6,9.4l-1.1,3L303.4,236.5z M304.3,233.1l0,1.7l-1.9,1.6l0.1,2l-2,1.5
					l-0.1,1.7l-1.8,1.7l0.1,2.4l-2.1,1.4l-0.1,2.4l-1.9,1.2l-0.1,2.1l-1.9,1.5l0,2.2l-0.8,0.6l-16.6-4.8l31-21.3l0,0.4L304.3,233.1z
					 M293.4,256.9l0-2l38,10.3l-1.1,2.9l-37.6-10.7L293.4,256.9z M293.7,254.3l1.5-1.2l0.1-1.8l37.5,10.2l-1.2,3.1L293.7,254.3z
					 M295.7,250.8l1.4-0.9l0.1-2.2l36.9,10l-1.2,3.1L295.7,250.8z M297.7,247.2l1.7-1.1l-0.1-2.2l36.2,9.8l-1.2,3.4L297.7,247.2z
					 M351.3,237.8l-1.7,1.7l-12.7-4.2l2.1-1.7L351.3,237.8z M340.6,233.6l0.4-0.4l12.3,4.2l-1.1,1.4l0-1.3L340.6,233.6z
					 M354.8,238.2V237L343,233l0-0.2l12.7,4L354.8,238.2z M329.7,189.4l10.4,3l-1.9,1h0v-0.3l-4,1.9l-10.3-2.9L329.7,189.4z
					 M177.1,242.4l22.7-9.7l36.9,10.5l1.1-0.7l1-0.6l-36.3-10.4l2.3-1l8.4,2.4l1.1-0.7l1.1-0.7l-7.8-2.2l8.2-3.5l10.8,3.1l-6.7,3.8
					l-1.4-0.4l-1.1,0.7l-1.1,0.7l5,1.4l1.1-0.7l1.1-0.7l-1-0.3l6.7-3.8l13,3.8l-7.8,3.4l-7.5-2.1l-1.1,0.7l-1.1,0.7l9.9,2.7
					l17.5-7.6l-1.7-0.5l-1.2-0.4l-4.2,1.8l-26.3-7.6l8.6-3.7l26.9,8.2l1.5,0.4l8-3.4l-1.6-0.5l-1.3-0.4l-5.1,2.2l-25.6-7.8l9.3-4
					l26.5,8.3l1.5,0.5l8.6-3.7l-1.6-0.4l-1.3-0.4l-5.8,2.5l-25.2-7.9l8.5-3.6l27.6,7.7l1.5,0.4l7.2-3.1l-1.5-0.4l-1.4-0.4l-4.5,1.9
					l-26.2-7.3l8.6-3.7l26.6,8.1l1.4,0.4l8.7-3.8l-1.4-0.4l-1.5-0.4l-6,2.6l-25.2-7.6l9.4-4l26.3,8.1l1.4,0.4l3-1.3l-1.4-0.4
					l-1.5-0.4l-0.2,0.1l-24.9-7.7l8.3-3.6l25.2,7.5l-5.1,2.2l1.5,0.4l1.4,0.4l7.8-3.4l-10.2-2.9l-50.8-14.7l20.5-9.1l47.5,13.8
					l-4.4,2.1l1.4,0.4l1.4,0.4l2-0.9l10.3,2.9l-2,1l2.8,0.8l4.4-2l28.9,8.4l-11.7,32.7l-12.9-4.1l-0.7,0.7l-1.2-0.4l-0.9,0.9
					l-1.1-0.4l-3.2,2.6l6,2l-0.5,1.3l-34.7-9.4l-0.4-0.5l-33.2,22.8l-23.9-6.8l-1,0.6l-1.2,0.7l82.8,23.7l-4.3,11.4L177.1,242.4z
					 M367.4,292.4l-40.3-10.6l7.9-21.2l36.2-8.9l52.4,16L367.4,292.4z"/>
			</g>
			<g id="XMLID_3_">
				<polygon fill="#FFFFFF" points="260.2,211.6 252.9,215.2 252.6,238.5 269.4,243.9 277,239.8 277,217 				"/>
				<path fill="#595757" d="M260,210.3l-8.3,4.2l-0.3,24.9l18,5.8l8.6-4.7v-24.4L260,210.3z M260,212.9l13.5,4.4l-4.3,2.4l-13.4-4.7
					L260,212.9z M253.9,216.9l14.2,5l-0.3,20.4l-14.1-4.6L253.9,216.9z M270.1,241.9l0.2-20.2l4.6-2.7v20.1L270.1,241.9z"/>
			</g>
		</g>
	</g>
	<polygon fill="#F27575" points="369.8,202.3 354.7,244.7 413.4,262.6 454.2,226.7 	"/>
</g>
</svg>
