<?xml version="1.0" encoding="utf-8"?>
<!-- Generator: Adobe Illustrator 18.1.1, SVG Export Plug-In . SVG Version: 6.00 Build 0)  -->
<svg version="1.1" id="레이어_1" xmlns="http://www.w3.org/2000/svg" xmlns:xlink="http://www.w3.org/1999/xlink" x="0px"
	 y="0px" viewBox="0 0 2000 2000" style="enable-background:new 0 0 2000 2000;" xml:space="preserve">
<style type="text/css">
	.st0{fill:#FFFFFF;}
	.st1{fill:#595757;}
	.st2{fill:#F27575;}
</style>
<g>
	<g>
		<g>
			<polygon class="st0" points="791.475,1281.908 833.423,1294.84 846.942,1280.282 781.111,1261.86 758.145,1271.633 
				766.429,1274.244 760.741,1277.088 785.975,1284.658 			"/>
			<polygon class="st0" points="663.396,1263.585 715.907,1279.078 766.182,1257.682 676.617,1232.619 631.153,1254.071 
				640.988,1257.025 635.057,1259.99 657.62,1266.473 			"/>
			<polygon class="st0" points="968.211,1161.403 971.089,1158.381 788.805,1106.21 723.826,1133.934 932.406,1196.194 
				950.046,1178.95 955.501,1180.407 973.515,1162.82 			"/>
			<polygon class="st0" points="882.578,1244.928 924.48,1203.941 709.88,1139.884 579.687,1195.433 854.51,1272.338 
				859.974,1266.997 865.343,1268.431 887.947,1246.362 			"/>
			<polygon class="st0" points="1012.805,1117.854 1014.479,1115.967 860.007,1075.83 802.941,1100.178 979.064,1150.585 
				998.5,1131.587 1004.001,1133.056 1018.119,1119.273 			"/>
			<polygon class="st0" points="608.553,1247.403 617.182,1249.949 662.365,1228.63 565.447,1201.509 519.48,1221.122 
				584.141,1240.229 577.623,1243.489 602.237,1250.561 			"/>
			<polygon class="st0" points="1078.342,1104.171 1143.797,1123.431 1167.688,1090.579 1094.086,1069.557 1054.322,1097.105 
				1061.415,1099.175 1056.315,1102.849 1073.305,1107.799 			"/>
			<polygon class="st0" points="1042.38,1093.591 1082.038,1066.116 898.376,1013.658 837.994,1034.073 848.512,1036.977 
				840.056,1039.836 861.411,1046.058 869.899,1043.189 			"/>
			<polygon class="st0" points="821.546,1029.406 881.977,1008.975 828.82,993.792 761.016,1012.23 796.103,1022.167 
				788.378,1024.778 809.013,1030.791 816.958,1028.104 			"/>
			<polygon class="st0" points="1579.309,1391.619 1589.493,1394.535 1643.587,1371.967 1518.573,1334.438 1463.858,1358.553 
				1545.417,1381.929 1538.394,1384.746 1572.183,1394.477 			"/>
			<polygon class="st0" points="1105.129,1464.436 1102.819,1470.881 1285.279,1519.608 1575.056,1400.48 1564.437,1397.584 
				1572.183,1394.477 1538.394,1384.746 1530.781,1387.799 1286.948,1317.963 1276.963,1322.173 1269.646,1320.219 
				1245.992,1329.519 1254.435,1331.774 1134.409,1382.278 1116.089,1433.66 1110.604,1432.195 1099.365,1462.897 			"/>
			<polygon class="st0" points="1261.596,1318.069 1272.095,1313.709 1169.348,1284.281 1157.219,1318.301 1184.49,1325.515 
				1173.349,1355.343 1239.016,1327.656 1245.992,1329.519 1269.646,1320.219 			"/>
			<polygon class="st0" points="885.929,1057.746 870.877,1053.475 849.487,1063.086 864.357,1066.95 			"/>
			<polygon class="st0" points="1138.822,1369.9 1161.072,1360.519 1171.67,1332.145 1153.953,1327.458 			"/>
			<polygon class="st0" points="966.545,1277.885 929.972,1327.189 1123.008,1385.402 1144.553,1324.972 			"/>
			<polygon class="st0" points="1075.453,1257.389 1051.39,1250.497 1051.482,1250.369 999.022,1234.102 972.761,1269.506 
				1054.311,1291.078 			"/>
			<polygon class="st0" points="1064.122,1293.674 1147.818,1315.814 1160.013,1281.608 1085.149,1260.166 			"/>
			<polygon class="st0" points="1067.227,1228.719 1013.063,1215.174 1005.14,1225.855 1057.502,1242.092 			"/>
			<polygon class="st0" points="806.219,1406.556 873.897,1424.46 896.303,1410.712 828.947,1392.611 			"/>
			<polygon class="st0" points="1097.78,1186.707 1043.875,1173.636 1031.289,1190.604 1088.217,1199.857 			"/>
			<polygon class="st0" points="1128.301,1144.74 1074.231,1132.713 1066.556,1143.059 1121.17,1154.544 			"/>
			<polygon class="st0" points="1114.925,1163.131 1060.203,1151.624 1050.142,1165.187 1103.943,1178.233 			"/>
			<polygon class="st0" points="1137.747,1131.75 1086.196,1116.582 1080.552,1124.191 1134.515,1136.194 			"/>
			<polygon class="st0" points="1081.833,1208.636 1024.791,1199.364 1019.312,1206.749 1073.373,1220.268 			"/>
			<path class="st1" d="M1517.935,1324.13l-68.639,30.253l-381.924-109.387l116.305-159.927L828.885,983.733l-104.066,28.298
				l55.056,15.622l8.503-2.875l-3.337-0.972l3.337,0.972l7.725-2.612l-35.087-9.936l67.803-18.438l53.157,15.183l-60.431,20.431
				l-4.588-1.302l-7.946,2.686l31.043,9.045l8.456-2.859l-10.518-2.904l60.382-20.415l183.662,52.457l-39.658,27.475
				l-172.481-50.402l-8.488,2.87l194.903,56.79l5.101-3.673l-7.093-2.07l39.763-27.548l73.603,21.022l-23.891,32.852l-65.455-19.259
				l-5.037,3.628l2.024,0.59l-2.024-0.59l-5.003,3.604l7.991,2.266l-162.314,218.82l205.771,62.051l-13.067,36.608l3.921,1.047
				l7.319-19.994l-7.319,19.994l5.486,1.465l18.319-51.383l120.026-50.503l-8.443-2.255l-9.37,3.684l9.37-3.684l-6.976-1.863
				l-65.667,27.687l11.14-29.828l-27.271-7.214l12.129-34.02l102.747,29.428l-10.499,4.36l8.05,2.15l10.445-4.107l-10.445,4.107
				l7.317,1.954l9.986-4.21l243.833,69.836l7.613-3.053l-2.098-0.604l2.098,0.604l7.023-2.817l-81.559-23.376l54.714-24.115
				l125.014,37.529l-54.094,22.569l-10.185-2.916l-7.126,2.858l1.964,0.566l-1.964-0.566l-7.746,3.107l10.619,2.896
				l-289.776,119.128l-182.46-48.727l2.31-6.445l-5.764-1.54l-3.513,9.596l3.513-9.596l-3.64-0.972l-2.299,6.448l-189.912-50.717
				l18.467-11.543l-12.666-3.383l-9.221,5.658l-67.356-18.101l9.249-5.539l-13.061-3.489l-18.712,11.481l-426.201-113.818
				l121.47-51.828l65.989,19.471l6.15-3.075l-12.82-3.683l12.82,3.683l6.519-3.26l-64.662-19.108l45.967-19.612l96.918,27.121
				l-45.182,21.319l-8.63-2.546l-6.316,3.158l32.82,9.43l5.931-2.966l-9.835-2.954l45.464-21.452l89.564,25.063l-50.275,21.396
				l-52.51-15.493l-5.776,2.888l15.384,4.42l-15.384-4.42l-6.929,3.465l65.81,19.417l27.825-11.841l9.628,2.968l6.787-3.394
				l-5.173-1.552l5.173,1.552l5.688-2.844l-8.284-2.611l22.966-9.773l65.831,18.422l-13.519,14.558l-41.948-12.932l-5.5,2.75
				l11.986,3.596l-11.986-3.596l-7.003,3.502l57.411,17.733l34.4-36.008l-5.44-1.453l-1.976,1.929l1.976-1.929l-5.369-1.434
				l-5.464,5.341l-274.823-76.905l130.193-55.549l214.6,64.057l-41.903,40.987l5.369,1.434l67.554-65.955l-5.455-1.457
				l-17.64,17.243l-208.58-62.26l64.979-27.724l182.284,52.171l-2.878,3.023l5.304,1.417l30.486-29.764l-5.501-1.469l-19.436,18.999
				l-176.122-50.407l57.066-24.348l154.471,40.137l-1.674,1.887l5.314,1.419l1.292-1.262l-1.292,1.262l5.373,1.435l10.029-9.804
				l-164.047-42.625l21.399-9.13l160.569,47.209l4.873-3.509l-194.903-56.79l-7.845,2.652l12.481,3.394l-21.554,9.684l-8.01-2.118
				l-16.828,5.689l25.003,6.482l-490.29,209.192l444.455,118.692l-20.874,12.934l12.763,3.409l11.7-7.179l67.677,17.904
				l-11.912,7.294l12.923,3.452l21.022-12.898l393.813,105.169l305.718-125.681l0,0l0.056-0.023l12.814-5.268l-0.111-0.032
				l67.909-28.331L1517.935,1324.13z M1086.196,1116.582l51.55,15.168l-3.232,4.444l-53.963-12.003L1086.196,1116.582z
				 M1074.231,1132.713l54.069,12.027l-7.13,9.804l-54.614-11.485L1074.231,1132.713z M1060.203,1151.624l54.722,11.507
				l-10.982,15.102l-53.801-13.046L1060.203,1151.624z M1043.875,1173.636l53.905,13.071l-9.563,13.15l-56.928-9.253
				L1043.875,1173.636z M1024.791,1199.364l57.042,9.272l-8.46,11.633l-54.061-13.519L1024.791,1199.364z M1013.063,1215.174
				l54.164,13.545l-9.725,13.372l-52.362-16.237L1013.063,1215.174z M999.022,1234.102l52.46,16.267l-0.093,0.127l24.063,6.892
				l-21.141,33.69l-81.55-21.573L999.022,1234.102z M1123.008,1385.402l-193.036-58.212l36.573-49.304l178.008,47.087
				L1123.008,1385.402z M1171.67,1332.145l-10.598,28.374l-22.25,9.381l15.132-42.442L1171.67,1332.145z M1147.818,1315.814
				l-83.696-22.14l21.027-33.508l74.864,21.442L1147.818,1315.814z M870.877,1053.475l15.051,4.271l-21.571,9.204l-14.87-3.864
				L870.877,1053.475z M873.897,1424.46l-67.677-17.904l22.728-13.945l67.356,18.101L873.897,1424.46z"/>
			<polygon class="st1" points="800.839,1033.554 832.197,1042.493 840.056,1039.836 809.013,1030.791 			"/>
			<polygon class="st1" points="628.307,1263.365 635.057,1259.99 602.237,1250.561 595.527,1253.916 			"/>
			<polygon class="st1" points="960.951,1181.863 955.501,1180.407 887.947,1246.362 893.444,1247.83 			"/>
			<polygon class="st1" points="1009.465,1134.516 1004.001,1133.056 973.515,1162.82 978.93,1164.266 			"/>
			<g>
				<polygon class="st0" points="778.972,1288.16 785.975,1284.658 760.741,1277.088 753.954,1280.482 744.326,1277.514 
					716.501,1289.355 650.691,1269.938 657.62,1266.473 635.057,1259.99 628.307,1263.365 595.527,1253.916 602.237,1250.561 
					577.623,1243.489 571.473,1246.564 505.484,1227.093 384.013,1278.921 770.774,1382.206 831.396,1304.352 				"/>
				<polygon class="st0" points="1119.75,1394.54 913.979,1332.489 1076.293,1113.669 1068.302,1111.403 1073.305,1107.799 
					1056.315,1102.849 1051.442,1106.358 890.873,1059.149 869.473,1068.279 1033.52,1110.904 1023.492,1120.708 1018.119,1119.273 
					1004.001,1133.056 1009.465,1134.516 978.93,1164.266 973.515,1162.82 955.501,1180.407 960.951,1181.863 893.444,1247.83 
					887.947,1246.362 865.343,1268.431 870.783,1269.884 836.383,1305.892 831.396,1304.352 770.774,1382.206 810.214,1392.739 
					828.926,1381.257 841.987,1384.746 832.738,1390.285 900.095,1408.386 909.315,1402.729 921.981,1406.112 903.514,1417.655 
					1093.426,1468.372 1095.725,1461.925 1099.365,1462.897 1110.604,1432.195 1106.683,1431.148 				"/>
			</g>
		</g>
		<g id="XMLID_5_">
			<polygon class="st2" points="983.22,1191.422 982.929,1201.45 974.612,1210.882 973.924,1222.041 965,1230.907 965,1231.02 
				965,1231.133 965.09,1241.372 956.601,1251.159 956.385,1262.318 947.67,1271.636 947.414,1282.456 939.324,1290.596 
				938.962,1302.03 930.18,1311.299 929.827,1321.215 921.98,1329.839 1126.029,1391.369 1131.407,1382.729 1131.957,1372.183 
				1138.239,1361.864 1138.594,1350.704 1144.133,1340.578 1144.666,1331.099 1150.625,1321.571 1151.239,1309.814 
				1157.021,1299.494 1157.748,1288.771 1163.82,1278.37 1164.175,1267.986 1169.94,1258.248 1170.392,1247.864 			"/>
			<g>
				<g>
					<polygon class="st1" points="1133.556,1373.155 1130.359,1371.211 1136.385,1361.311 1136.679,1352.081 938.801,1292.386 
						939.882,1288.805 1140.508,1349.329 1140.094,1362.415 					"/>
				</g>
				<g>
					<polygon class="st1" points="1140.234,1351.602 1136.953,1349.808 1142.29,1340.051 1142.716,1332.463 947.198,1273.426 
						948.28,1269.845 1146.618,1329.734 1145.977,1341.107 					"/>
				</g>
				<g>
					<polygon class="st1" points="1146.253,1332.09 1143.081,1330.106 1148.781,1320.989 1149.295,1311.181 956.339,1252.95 
						957.421,1249.368 1153.183,1308.448 1152.469,1322.151 					"/>
				</g>
				<g>
					<polygon class="st1" points="1159.362,1289.714 1156.132,1287.829 1161.966,1277.835 1162.256,1269.362 974.072,1212.673 
						975.152,1209.092 1166.093,1266.611 1165.675,1278.905 					"/>
				</g>
				<g>
					<polygon class="st1" points="1152.871,1310.728 1149.607,1308.901 1155.182,1298.949 1155.779,1290.133 965.201,1232.698 
						966.291,1229.117 966.663,1229.23 1159.715,1287.411 1158.858,1300.041 					"/>
				</g>
				<g>
					<path class="st1" d="M1126.862,1393.574l-1.372-0.415l-206.888-62.385l9.383-10.312l0.356-9.936l8.782-9.269l0.373-11.461
						l8.103-8.132l0.29-10.793l8.789-9.322l0.354-11.131l8.779-9.799l0.438-10.316l0.508-0.682l7.864-8.335l0.129-11.122
						l8.329-9.446l0.342-11.796l2.34,0.707l188.566,56.861l-0.535,12.306l-6.006,10.142l-3.219-1.907l5.527-9.335l0.367-8.461
						l-183.44-55.317l-0.239,8.262l-8.305,9.417l-0.129,11.195l-8.38,8.882l-0.479,10.447l-8.759,9.777l-0.356,11.186l-8.782,9.315
						l-0.291,10.851l-8.11,8.143l-0.371,11.406l-7.188,7.584l200.272,60.431l-0.651,12.492L1126.862,1393.574z M925.362,1328.904
						l199.838,60.26l4.365-7.014l0.449-8.6l-198.045-59.757l-0.293,8.176L925.362,1328.904z"/>
				</g>
			</g>
		</g>
	</g>
	<g id="XMLID_6_">
		<polygon class="st0" points="786.537,963.11 752.014,980.356 750.595,1277.566 829.874,1303.052 866,1283.675 866,988.596 		"/>
		<path class="st1" d="M785.757,955.747l-39.476,19.847l-1.417,306.033l85.248,27.522L871,1286.98V983.218L785.757,955.747z
			 M785.656,967.864l63.855,20.834l-20.313,11.602l-63.604-22.215L785.656,967.864z M756.873,986.929l67.224,23.48l-1.258,284.94
			l-66.929-21.842L756.873,986.929z M833.249,1293.452l0.824-283.728L856,996.96v283.409L833.249,1293.452z"/>
	</g>
	<g>
		<g>
			<polygon class="st0" points="712.615,971.456 718.138,968.088 669.891,954.489 664.534,957.756 489.668,907.769 382.11,953.627 
				1084.88,1137.895 1105.056,1083.684 			"/>
			<polygon class="st0" points="1146,719.865 1146,721 1146.109,721 1154.949,716.393 1105.617,702.482 1078.286,715.122 
				1126.864,728.971 			"/>
			<polygon class="st0" points="578.002,906.405 584.766,908.308 616.68,890.132 565.624,875.385 526.709,891.976 563.741,902.287 
				558.536,905.461 572.89,909.523 			"/>
			<polygon class="st0" points="1139.957,920.063 1200.126,940.04 1208.069,931.855 1149.692,912.177 			"/>
			<polygon class="st0" points="1212.438,936.238 1217.795,929.566 1159.359,909.538 1157.416,911.614 1212.276,930.105 			"/>
			<polygon class="st0" points="619.331,852.487 578.729,869.797 703.51,905.84 723.388,897.176 729.174,898.847 746.858,891.203 
							"/>
			<polygon class="st0" points="618.062,917.674 653.494,927.64 690.576,911.477 628.753,893.62 596.946,911.734 601.599,913.068 
				596.471,916.195 612.876,920.836 			"/>
			<polygon class="st0" points="783.495,782.495 742.615,799.924 866.705,834.708 887.88,825.479 894.49,827.388 909.721,820.805 
							"/>
			<polygon class="st0" points="1051.55,717.498 1072.486,707.769 847.177,642.446 750.055,685.54 991.073,755.361 
				1058.297,719.447 			"/>
			<polygon class="st0" points="676.2,828.24 632.213,846.994 753.673,883.975 777.979,873.381 784.04,875.131 801.753,867.475 			
				"/>
			<polygon class="st0" points="729.38,805.567 688.989,822.788 808.674,860.002 836.198,848.005 842.549,849.84 860.07,842.267 			
				"/>
			<polygon class="st0" points="988.864,781.439 1012.998,770.944 893.501,735.593 853.957,752.453 972.065,788.785 
				973.157,788.309 980.195,790.341 996.014,783.504 			"/>
			<polygon class="st0" points="841.121,757.926 796.395,776.995 915.949,813.243 944.348,800.866 951.242,802.857 965.962,796.494 
							"/>
			<polygon class="st0" points="723.023,965.109 836.256,997.478 993.493,889.518 995.188,891.987 1159.765,936.681 
				1162.044,930.559 1133.805,921.183 1149.085,908.806 1154.29,910.561 1158.494,906.067 1163.975,907.946 1167.494,904.816 
				1228.721,924.261 1284.203,769.155 1147.249,729.448 1126.483,739.142 1113.431,735.372 1122.98,730.838 1074.184,716.917 
				1064.764,721.315 1058.297,719.447 991.073,755.361 1039.258,769.32 1002.453,785.364 996.014,783.504 980.195,790.341 
				986.658,792.208 972.402,798.483 965.962,796.494 951.242,802.857 957.859,804.768 916.453,822.848 909.721,820.805 
				894.49,827.388 901.539,829.424 867.267,844.287 860.07,842.267 842.549,849.84 849.902,851.964 808.926,869.716 
				801.753,867.475 784.04,875.131 791.676,877.337 753.864,893.331 746.858,891.203 729.174,898.847 737.136,901.147 
				654.148,937.179 607.428,924.159 612.876,920.836 596.471,916.195 591.118,919.46 567.449,912.841 572.89,909.523 
				558.536,905.461 553.125,908.761 513.49,897.612 502.821,902.161 674.762,951.519 669.891,954.489 718.138,968.088 			"/>
			<polygon class="st0" points="1093.634,1140.19 1284.529,1190.244 1551.206,1073.203 1302.737,997.544 1131.036,1039.693 			"/>
			<polygon class="st0" points="1225.544,933.759 1219,941.308 1219,933.41 1209.876,944.499 1209.508,934.797 1201.022,943.482 
				1170.623,933.398 1132.315,1036.293 1297.127,995.833 1212.466,970.021 			"/>
			<polygon class="st2" points="1158.714,939.505 997.812,895.81 998.591,896.944 997.295,897.833 997.31,903.112 989.834,909.532 
				1153.343,953.936 			"/>
			<polygon class="st0" points="1228.587,926.979 1168.824,908.193 1168.761,909.063 1224,927.681 1224,933.461 			"/>
			<polygon class="st2" points="1152.292,956.76 988.255,912.214 988.412,918.895 981.117,925.323 1147.084,970.754 			"/>
			<polygon class="st2" points="1119.909,1043.774 942.383,995.565 942.11,1004.105 934.925,1009.835 1114.4,1058.574 			"/>
			<polygon class="st2" points="1126.468,1026.149 951.659,978.678 951.364,989.024 944.703,993.084 1120.96,1040.949 			"/>
			<polygon class="st0" points="994.299,899.891 847.491,1000.689 926.363,1023.235 930.36,1020.419 930.159,1009.795 
				939.154,1002.622 939.47,992.76 948.411,987.309 948.736,975.898 958.87,969.353 958.547,958.143 967.172,950.063 
				967.463,942.196 976.876,934.873 976.509,925.381 985.378,917.567 985.19,909.562 994.304,901.737 			"/>
			<polygon class="st2" points="1113.349,1061.399 933.213,1012.48 933.392,1021.955 930.07,1024.295 1108.207,1075.217 			"/>
			<polygon class="st2" points="1146.033,973.579 979.615,928.025 979.935,936.298 972.227,942.294 1140.566,988.268 			"/>
			<polygon class="st2" points="1133.441,1007.414 961.626,960.754 961.918,970.956 953.856,976.164 1127.519,1023.324 			"/>
			<polygon class="st2" points="1139.515,991.093 970.367,944.898 970.126,951.409 963.056,958.033 1134.492,1004.589 			"/>
			<path class="st1" d="M1224.013,964.158l71.894-200.987l-136.268-39.508l22.831-10.54l-13.31-3.845l-9.973,4.656l0.029-0.105
				l-49.308-13.59l10.647-5l-13.114-3.788l-22.565,10.535l-236.769-68.646l-1.579-0.459l-122.892,54.53l156.101,44.262
				L354.37,955.664l929.391,243.689l1.516,0.397l291.821-128.078L1224.013,964.158z M1212.352,970.021l84.768,25.812
				l-164.819,40.459l38.294-102.895l30.372,10.084l8.43-8.685l0.478,9.702L1219,933.41v7.898l6.544-7.549L1212.352,970.021z
				 M997.295,897.833l1.296-0.89l-0.778-1.133l160.901,43.695l-5.37,14.43l-163.51-44.404l7.477-6.42L997.295,897.833z
				 M972.227,942.294l7.708-5.995l-0.32-8.273l166.418,45.554l-5.466,14.688L972.227,942.294z M1139.515,991.093l-5.023,13.496
				l-171.436-46.556l7.07-6.624l0.241-6.511L1139.515,991.093z M981.117,925.323l7.296-6.428l-0.157-6.682l164.037,44.547
				l-5.208,13.993L981.117,925.323z M985.19,909.562l0.188,8.005l-8.869,7.814l0.367,9.492l-9.412,7.323l-0.291,7.867l-8.625,8.079
				l0.323,11.21l-10.134,6.545l-0.325,11.411l-8.94,5.451l-0.317,9.862l-8.994,7.174l0.201,10.624l-3.998,2.817l-78.871-22.546
				l146.807-100.799l0.005,1.846L985.19,909.562z M933.392,1021.955l-0.179-9.475l180.136,48.919l-5.143,13.818l-178.137-50.922
				L933.392,1021.955z M934.925,1009.835l7.185-5.73l0.273-8.54l177.526,48.209l-5.508,14.801L934.925,1009.835z M944.703,993.084
				l6.661-4.061l0.295-10.346l174.809,47.471l-5.508,14.8L944.703,993.084z M953.856,976.164l8.062-5.208l-0.293-10.202
				l171.815,46.659l-5.922,15.911L953.856,976.164z M1208.069,931.855l-7.943,8.185l-60.168-19.977l9.735-7.886L1208.069,931.855z
				 M1157.416,911.614l1.943-2.076l58.436,20.028l-5.357,6.673l-0.163-6.133L1157.416,911.614z M1224,933.461v-5.78l-55.544-18.618
				l0.368-0.869l60.068,18.785L1224,933.461z M1105.716,702.196l49.431,14.197l-9.038,4.607H1146v-1.135l-19.111,9.035
				l-48.675-13.921L1105.716,702.196z M382.11,953.627l107.558-45.858l174.866,49.988l5.357-3.267l4.871-2.971l-171.941-49.358
				l10.669-4.549l39.635,11.149l5.411-3.3l5.205-3.174l-37.032-10.311l38.915-16.591l51.056,14.747l-31.914,18.176l-6.764-1.903
				l-5.112,3.117l-5.441,3.318l23.669,6.619l5.353-3.265l5.128-3.127l-4.653-1.334l31.807-18.114l61.823,17.858l-37.082,16.163
				l-35.432-9.966l-5.186,3.163l-5.447,3.322l46.72,13.02l82.989-36.032l-7.962-2.3l-5.786-1.671l-19.879,8.664l-124.78-36.043
				l40.602-17.311l127.527,38.717l7.006,2.127l37.812-15.994l-7.636-2.206l-6.061-1.75l-24.306,10.594l-121.46-36.981L676.2,828.24
				l125.554,39.234l7.173,2.241l40.976-17.752l-7.353-2.124l-6.351-1.835l-27.524,11.997l-119.684-37.215l40.391-17.221l130.69,36.7
				l7.196,2.021l34.273-14.863l-7.049-2.036l-6.61-1.909l-21.175,9.229l-124.09-34.784l40.88-17.43l126.226,38.31l6.732,2.043
				l41.406-18.079l-6.617-1.911l-6.894-1.991l-28.399,12.378l-119.554-36.249l44.725-19.069l124.842,38.568l6.439,1.989
				l14.256-6.275l-6.462-1.867l-7.038-2.033l-1.093,0.476l-118.108-36.332l39.545-16.86l119.496,35.351l-24.133,10.494l7.15,2.065
				l6.439,1.86l36.805-16.044l-48.185-13.959L750.055,685.54l97.121-43.094l225.309,65.324l-20.936,9.728l6.748,1.949l6.466,1.868
				l9.42-4.398l48.796,13.921l-9.549,4.534l13.052,3.77l20.766-9.695l136.954,39.707l-55.483,155.106l-61.227-19.444l-3.519,3.129
				l-5.481-1.879l-4.204,4.494l-5.205-1.754l-15.28,12.377l28.238,9.376l-2.278,6.122l-164.577-44.693l-1.695-2.469l-157.237,107.96
				l-113.233-32.369l-4.885,2.979l-5.523,3.368l392.44,112.228l-20.176,54.211L382.11,953.627z M1284.529,1190.244l-190.895-50.053
				l37.402-100.497l171.702-42.149l248.468,75.659L1284.529,1190.244z"/>
		</g>
		<g id="XMLID_4_">
			<polygon class="st0" points="786.537,802.229 752.014,819.475 750.595,929.855 829.874,955.341 866,935.964 866,827.715 			"/>
			<path class="st1" d="M785.757,796.171l-39.476,19.847l-1.417,117.897l85.248,27.522L871,939.268V823.642L785.757,796.171z
				 M785.656,808.288l63.855,20.834l-20.313,11.602l-63.604-22.215L785.656,808.288z M756.873,827.353l67.224,23.48l-1.258,96.805
				l-66.929-21.842L756.873,827.353z M833.249,945.741l0.824-95.593L856,837.384v95.274L833.249,945.741z"/>
		</g>
	</g>
</g>
</svg>
