<?xml version="1.0" encoding="utf-8"?>
<!-- Generator: Adobe Illustrator 18.1.1, SVG Export Plug-In . SVG Version: 6.00 Build 0)  -->
<svg version="1.1" id="레이어_1" xmlns="http://www.w3.org/2000/svg" xmlns:xlink="http://www.w3.org/1999/xlink" x="0px"
	 y="0px" viewBox="0 0 2000 2000" style="enable-background:new 0 0 2000 2000;" xml:space="preserve">
<style type="text/css">
	.st0{fill:#FFFFFF;}
	.st1{fill:#595757;}
	.st2{fill:#F27575;}
</style>
<g>
	<g>
		<polygon class="st0" points="838.55,1073.841 881.426,1087.059 895.244,1072.178 827.957,1053.349 804.482,1063.338 
			812.949,1066.007 807.136,1068.914 832.928,1076.652 		"/>
		<polygon class="st0" points="707.637,1055.112 761.309,1070.948 812.697,1049.078 721.15,1023.46 674.68,1045.387 
			684.732,1048.407 678.67,1051.438 701.732,1058.064 		"/>
		<polygon class="st0" points="1019.197,950.669 1022.138,947.58 835.82,894.254 769.404,922.592 982.599,986.229 1000.63,968.604 
			1006.206,970.094 1024.618,952.117 		"/>
		<polygon class="st0" points="931.668,1036.042 974.498,994.148 755.149,928.674 622.075,985.452 902.98,1064.059 908.564,1058.6 
			914.052,1060.065 937.156,1037.508 		"/>
		<polygon class="st0" points="1064.777,906.156 1066.488,904.227 908.598,863.202 850.27,888.089 1030.289,939.612 
			1050.156,920.193 1055.779,921.695 1070.209,907.606 		"/>
		<polygon class="st0" points="651.579,1038.572 660.4,1041.174 706.582,1019.384 607.52,991.662 560.535,1011.709 626.628,1031.24 
			619.965,1034.571 645.124,1041.8 		"/>
		<polygon class="st0" points="1131.765,892.171 1198.668,911.856 1223.088,878.277 1147.857,856.79 1107.214,884.948 
			1114.463,887.064 1109.25,890.819 1126.616,895.879 		"/>
		<polygon class="st0" points="1095.007,881.356 1135.543,853.273 947.816,799.655 886.098,820.521 896.849,823.489 
			888.206,826.411 910.033,832.772 918.709,829.838 		"/>
		<polygon class="st0" points="869.286,815.751 931.054,794.867 876.721,779.349 807.417,798.195 843.28,808.351 835.384,811.021 
			856.475,817.166 864.597,814.42 		"/>
		<polygon class="st0" points="1643.818,1185.979 1654.227,1188.96 1709.518,1165.892 1581.737,1127.533 1525.812,1152.182 
			1609.176,1176.075 1601.998,1178.954 1636.534,1188.901 		"/>
		<polygon class="st0" points="1159.145,1260.408 1156.783,1266.995 1343.281,1316.801 1639.47,1195.037 1628.617,1192.076 
			1636.534,1188.901 1601.998,1178.954 1594.217,1182.075 1344.988,1110.693 1334.781,1114.997 1327.302,1112.999 
			1303.125,1122.505 1311.755,1124.81 1189.072,1176.431 1170.348,1228.951 1164.74,1227.453 1153.253,1258.834 		"/>
		<polygon class="st0" points="1319.074,1110.801 1329.805,1106.345 1224.784,1076.266 1212.387,1111.038 1240.262,1118.412 
			1228.875,1148.9 1295.994,1120.601 1303.125,1122.505 1327.302,1112.999 		"/>
		<polygon class="st0" points="935.094,844.718 919.709,840.352 897.845,850.176 913.045,854.126 		"/>
		<polygon class="st0" points="1193.583,1163.78 1216.326,1154.191 1227.158,1125.189 1209.05,1120.399 		"/>
		<polygon class="st0" points="1017.494,1069.728 980.111,1120.124 1177.419,1179.624 1199.441,1117.857 		"/>
		<polygon class="st0" points="1128.811,1048.778 1104.216,1041.734 1104.311,1041.604 1050.69,1024.977 1023.847,1061.164 
			1107.202,1083.214 		"/>
		<polygon class="st0" points="1117.23,1085.867 1202.778,1108.497 1215.244,1073.534 1138.723,1051.617 		"/>
		<polygon class="st0" points="1120.404,1019.475 1065.041,1005.63 1056.943,1016.547 1110.464,1033.143 		"/>
		<polygon class="st0" points="853.62,1201.247 922.795,1219.547 945.698,1205.495 876.851,1186.993 		"/>
		<polygon class="st0" points="1151.633,976.533 1096.535,963.173 1083.67,980.516 1141.858,989.974 		"/>
		<polygon class="st0" points="1182.829,933.637 1127.563,921.343 1119.718,931.919 1175.541,943.658 		"/>
		<polygon class="st0" points="1169.158,952.435 1113.225,940.673 1102.941,954.536 1157.932,967.871 		"/>
		<polygon class="st0" points="1192.484,920.36 1139.793,904.856 1134.024,912.633 1189.181,924.902 		"/>
		<polygon class="st0" points="1135.333,998.947 1077.028,989.47 1071.429,997.018 1126.686,1010.837 		"/>
		<path class="st1" d="M1581.086,1116.997l-70.158,30.922l-390.376-111.808l118.879-163.466L876.787,769.067l-106.369,28.924
			l56.275,15.967l8.691-2.938l-3.411-0.994l3.411,0.994l7.896-2.669l-35.863-10.156l69.304-18.846l54.333,15.519l-61.768,20.883
			l-4.69-1.331l-8.121,2.746l31.73,9.246l8.643-2.922l-10.75-2.968l61.718-20.867l187.727,53.618l-40.536,28.083l-176.298-51.518
			l-8.676,2.933l199.216,58.047l5.214-3.755l-7.25-2.116l40.643-28.158l75.231,21.487l-24.42,33.579l-66.904-19.685l-5.148,3.708
			l2.068,0.603l-2.068-0.603l-5.114,3.683l8.168,2.316L963.764,1125.54l210.325,63.424l-13.356,37.419l4.007,1.07l7.481-20.436
			l-7.481,20.436l5.607,1.498l18.725-52.52l122.683-51.621l-8.63-2.305l-9.578,3.766l9.578-3.766l-7.131-1.905l-67.12,28.299
			l11.387-30.488l-27.875-7.374l12.397-34.772l105.021,30.079l-10.731,4.456l8.228,2.198l10.676-4.198l-10.676,4.198l7.479,1.998
			l10.207-4.303l249.229,71.382l7.781-3.121l-2.145-0.618l2.145,0.618l7.178-2.879l-83.364-23.893l55.925-24.649l127.781,38.359
			l-55.291,23.068l-10.41-2.981l-7.284,2.922l2.007,0.578l-2.007-0.578l-7.917,3.176l10.854,2.961l-296.189,121.764l-186.498-49.806
			l2.361-6.588l-5.892-1.574l-3.591,9.809l3.591-9.809l-3.72-0.993l-2.35,6.59l-194.115-51.84l18.876-11.799l-12.946-3.458
			l-9.425,5.783l-68.847-18.502l9.453-5.662l-13.35-3.566l-19.127,11.735l-435.632-116.336l124.158-52.974l67.449,19.901
			l6.286-3.143l-13.104-3.765l13.104,3.765l6.663-3.332l-66.093-19.531l46.984-20.046l99.063,27.721l-46.182,21.791l-8.821-2.602
			l-6.456,3.228l33.546,9.638l6.062-3.031l-10.052-3.02l46.471-21.927l91.546,25.618l-51.388,21.87l-53.672-15.836l-5.904,2.952
			l15.725,4.518l-15.725-4.518l-7.082,3.541l67.267,19.847l28.44-12.103l9.841,3.034l6.938-3.469l-5.287-1.586l5.287,1.586
			l5.813-2.907l-8.467-2.669l23.474-9.99l67.287,18.83l-13.818,14.88l-42.876-13.218l-5.622,2.811l12.251,3.675l-12.251-3.675
			l-7.158,3.579l58.682,18.125l35.161-36.805l-5.561-1.485l-2.02,1.972l2.02-1.972l-5.487-1.466l-5.585,5.459l-280.904-78.607
			l133.074-56.778l219.349,65.474l-42.83,41.894l5.488,1.466l69.049-67.414l-5.576-1.489l-18.03,17.625l-213.195-63.637
			l66.417-28.338l186.318,53.325l-2.942,3.089l5.422,1.448l31.16-30.422l-5.623-1.502l-19.866,19.419l-180.02-51.523l58.329-24.887
			l157.89,41.025l-1.711,1.928l5.432,1.451l1.321-1.29l-1.321,1.29l5.492,1.467l10.251-10.021l-167.677-43.568l21.873-9.332
			l164.123,48.253l4.98-3.587l-199.216-58.047l-8.018,2.711l12.758,3.469l-22.031,9.898l-8.187-2.165l-17.2,5.815l25.556,6.625
			l-501.139,213.821l454.291,121.319l-21.336,13.22l13.046,3.484l11.959-7.338l69.175,18.301l-12.175,7.456l13.209,3.528
			l21.487-13.184l402.528,107.497l312.484-128.462l0,0l0.057-0.024l13.098-5.385l-0.113-0.032l69.412-28.958L1581.086,1116.997z
			 M1139.793,904.856l52.691,15.504l-3.303,4.542l-55.157-12.269L1139.793,904.856z M1127.563,921.343l55.266,12.293l-7.288,10.021
			l-55.823-11.739L1127.563,921.343z M1113.225,940.673l55.933,11.762l-11.225,15.436l-54.991-13.334L1113.225,940.673z
			 M1096.535,963.173l55.098,13.36l-9.775,13.441l-58.188-9.458L1096.535,963.173z M1077.028,989.47l58.304,9.477l-8.647,11.89
			l-55.257-13.818L1077.028,989.47z M1065.041,1005.63l55.363,13.845l-9.94,13.668l-53.521-16.596L1065.041,1005.63z
			 M1050.69,1024.977l53.621,16.627l-0.095,0.13l24.595,7.044l-21.609,34.435l-83.355-22.05L1050.69,1024.977z M1177.419,1179.624
			l-197.308-59.5l37.383-50.396l181.947,48.129L1177.419,1179.624z M1227.158,1125.189l-10.832,29.002l-22.743,9.589l15.467-43.381
			L1227.158,1125.189z M1202.778,1108.497l-85.548-22.63l21.493-34.249l76.521,21.916L1202.778,1108.497z M919.709,840.352
			l15.385,4.366l-22.049,9.407l-15.2-3.949L919.709,840.352z M922.795,1219.547l-69.175-18.3l23.231-14.254l68.847,18.502
			L922.795,1219.547z"/>
		<polygon class="st1" points="848.121,819.99 880.173,829.127 888.206,826.411 856.475,817.166 		"/>
		<polygon class="st1" points="671.771,1054.887 678.67,1051.438 645.124,1041.8 638.265,1045.229 		"/>
		<polygon class="st1" points="1011.776,971.582 1006.206,970.094 937.156,1037.508 942.775,1039.009 		"/>
		<polygon class="st1" points="1061.364,923.186 1055.779,921.695 1024.618,952.117 1030.153,953.596 		"/>
		<g>
			<polygon class="st2" points="825.77,1080.231 832.928,1076.652 807.136,1068.914 800.198,1072.383 790.357,1069.349 
				761.917,1081.452 694.65,1061.605 701.732,1058.064 678.67,1051.438 671.771,1054.887 638.265,1045.229 645.124,1041.8 
				619.965,1034.571 613.679,1037.714 546.229,1017.813 422.071,1070.787 817.391,1176.358 879.354,1096.781 			"/>
			<polygon class="st0" points="1174.089,1188.964 963.764,1125.54 1129.671,901.878 1121.502,899.562 1126.616,895.879 
				1109.25,890.819 1104.27,894.406 940.147,846.152 918.274,855.484 1085.951,899.053 1075.701,909.073 1070.209,907.606 
				1055.779,921.695 1061.364,923.186 1030.153,953.596 1024.618,952.117 1006.206,970.094 1011.776,971.582 942.775,1039.009 
				937.156,1037.508 914.052,1060.065 919.612,1061.55 884.451,1098.355 879.354,1096.781 817.391,1176.358 857.703,1187.124 
				876.83,1175.388 890.179,1178.954 880.726,1184.616 949.573,1203.118 958.997,1197.335 971.944,1200.793 953.068,1212.592 
				1147.183,1264.431 1149.533,1257.841 1153.253,1258.834 1164.74,1227.453 1160.733,1226.383 			"/>
		</g>
	</g>
	<g id="XMLID_9_">
		<polygon class="st0" points="1034.538,981.352 1034.241,991.602 1025.74,1001.243 1025.079,1012.648 1016,1021.711 1016,1021.827 
			1016,1021.942 1016.05,1032.407 1007.351,1042.411 1007.12,1053.817 998.206,1063.341 997.942,1074.401 989.672,1082.72 
			989.301,1094.407 980.325,1103.882 979.964,1114.017 971.943,1122.832 1180.508,1185.723 1186.004,1176.892 1186.566,1166.113 
			1192.987,1155.565 1193.35,1144.159 1199.012,1133.809 1199.557,1124.12 1205.648,1114.381 1206.275,1102.364 1212.185,1091.816 
			1212.928,1080.855 1219.134,1070.225 1219.497,1059.611 1225.39,1049.657 1225.852,1039.043 		"/>
		<g>
			<g>
				<polygon class="st1" points="1188.201,1167.106 1184.933,1165.119 1191.092,1155.001 1191.393,1145.566 989.136,1084.55 
					990.241,1080.89 1195.307,1142.754 1194.883,1156.129 				"/>
			</g>
			<g>
				<polygon class="st1" points="1195.027,1145.077 1191.673,1143.243 1197.128,1133.27 1197.563,1125.514 997.719,1065.171 
					998.824,1061.51 1201.552,1122.724 1200.896,1134.35 				"/>
			</g>
			<g>
				<polygon class="st1" points="1201.178,1125.133 1197.936,1123.105 1203.763,1113.786 1204.288,1103.761 1007.062,1044.241 
					1008.168,1040.581 1208.262,1100.968 1207.532,1114.974 				"/>
			</g>
			<g>
				<polygon class="st1" points="1214.578,1081.82 1211.276,1079.892 1217.239,1069.677 1217.536,1061.017 1025.188,1003.073 
					1026.291,999.413 1221.458,1058.205 1221.03,1070.771 				"/>
			</g>
			<g>
				<polygon class="st1" points="1207.943,1103.298 1204.607,1101.431 1210.305,1091.258 1210.916,1082.247 1016.12,1023.541 
					1017.235,1019.881 1017.615,1019.997 1214.938,1079.465 1214.063,1092.375 				"/>
			</g>
			<g>
				<path class="st1" d="M1181.358,1187.978l-1.402-0.424l-211.467-63.765l9.591-10.54l0.364-10.156l8.976-9.474l0.381-11.715
					l8.283-8.312l0.296-11.031l8.984-9.528l0.362-11.377l8.974-10.016l0.447-10.544l0.519-0.697l8.038-8.52l0.132-11.368
					l8.513-9.655l0.349-12.057l2.391,0.723l192.739,58.12l-0.547,12.578l-6.139,10.367l-3.291-1.95l5.649-9.541l0.375-8.649
					l-187.5-56.541l-0.245,8.445l-8.489,9.625l-0.132,11.442l-8.565,9.078l-0.489,10.679l-8.953,9.993l-0.364,11.433l-8.976,9.521
					l-0.298,11.091l-8.29,8.324l-0.379,11.659l-7.347,7.752l204.704,61.769l-0.665,12.768L1181.358,1187.978z M975.399,1121.876
					l204.26,61.593l4.462-7.17l0.459-8.79l-202.428-61.08l-0.3,8.357L975.399,1121.876z"/>
			</g>
		</g>
	</g>
</g>
</svg>
