<?xml version="1.0" encoding="utf-8"?>
<!-- Generator: Adobe Illustrator 18.1.1, SVG Export Plug-In . SVG Version: 6.00 Build 0)  -->
<svg version="1.1" id="레이어_1" xmlns="http://www.w3.org/2000/svg" xmlns:xlink="http://www.w3.org/1999/xlink" x="0px"
	 y="0px" viewBox="0 0 2000 2000" style="enable-background:new 0 0 2000 2000;" xml:space="preserve">
<style type="text/css">
	.st0{fill:#FFFFFF;}
	.st1{fill:#595757;}
	.st2{fill:#F27575;}
</style>
<g>
	<g>
		<g>
			<polygon class="st0" points="724.927,1140.232 730.805,1136.647 679.457,1122.174 673.755,1125.651 487.649,1072.451 
				373.178,1121.256 1121.119,1317.369 1142.592,1259.673 			"/>
			<polygon class="st0" points="1187,872.469 1187,874 1186.284,874 1195.692,868.936 1143.189,854.05 1114.101,867.462 
				1166.218,882.181 			"/>
			<polygon class="st0" points="581.661,1071 588.86,1073.025 622.826,1053.681 568.488,1037.985 527.071,1055.643 
				566.483,1066.617 560.944,1069.995 576.22,1074.317 			"/>
			<polygon class="st0" points="1179.737,1085.536 1243.773,1106.797 1252.226,1098.086 1190.097,1077.143 			"/>
			<polygon class="st0" points="1256.876,1102.75 1262.578,1095.649 1200.385,1074.333 1198.318,1076.543 1256.703,1096.223 			"/>
			<polygon class="st0" points="625.647,1013.615 582.435,1032.039 715.236,1070.398 736.392,1061.177 742.55,1062.956 
				761.37,1054.821 			"/>
			<polygon class="st0" points="624.296,1082.992 662.005,1093.599 701.471,1076.398 635.674,1057.392 601.823,1076.671 
				606.775,1078.09 601.317,1081.419 618.776,1086.359 			"/>
			<polygon class="st0" points="800.363,939.125 756.855,957.674 888.921,994.694 911.457,984.872 918.492,986.904 934.702,979.897 
							"/>
			<polygon class="st0" points="1085.647,869.95 1107.929,859.596 868.138,790.074 764.774,835.938 1021.283,910.247 
				1092.828,872.024 			"/>
			<polygon class="st0" points="686.171,987.811 639.357,1007.77 768.624,1047.127 794.492,1035.852 800.943,1037.715 
				819.794,1029.567 			"/>
			<polygon class="st0" points="742.769,963.68 699.782,982.007 827.159,1021.614 856.453,1008.846 863.212,1010.799 
				881.86,1002.738 			"/>
			<polygon class="st0" points="1018.932,938.001 1044.617,926.832 917.44,889.208 875.353,907.152 1001.053,945.819 
				1002.216,945.312 1009.706,947.476 1026.541,940.199 			"/>
			<polygon class="st0" points="861.692,912.977 814.092,933.271 941.331,971.85 971.555,958.677 978.891,960.796 994.558,954.024 
							"/>
			<polygon class="st0" points="1130.436,1319.812 1333.601,1373.082 1617.419,1248.518 1352.98,1167.996 1170.242,1212.855 			"/>
			<polygon class="st0" points="1270.895,1100.111 1264,1108.146 1264,1099.74 1254.219,1111.542 1253.793,1101.217 
				1244.744,1110.46 1212.382,1099.728 1171.608,1209.236 1347.011,1166.176 1256.942,1138.705 			"/>
			<polygon class="st0" points="1199.699,1106.228 1028.455,1059.724 1029.284,1060.93 1027.905,1061.877 1027.921,1067.494 
				1019.964,1074.328 1193.983,1121.585 			"/>
			<polygon class="st0" points="1273.972,1092.896 1210.413,1072.903 1210.279,1073.828 1269,1093.643 1269,1099.794 			"/>
			<polygon class="st0" points="1192.865,1124.591 1018.284,1077.181 1018.451,1084.292 1010.687,1091.133 1187.322,1139.484 			"/>
			<polygon class="st0" points="1158.4,1217.197 969.463,1165.89 969.173,1174.979 961.526,1181.078 1152.537,1232.95 			"/>
			<polygon class="st0" points="1165.381,1198.44 979.336,1147.918 979.022,1158.928 971.932,1163.25 1159.519,1214.191 			"/>
			<polygon class="st0" points="1024.716,1064.066 868.472,1171.344 952.413,1195.339 956.668,1192.342 956.454,1181.035 
				966.026,1173.4 966.363,1162.905 975.878,1157.103 976.224,1144.959 987.009,1137.993 986.666,1126.062 995.846,1117.464 
				996.156,1109.091 1006.173,1101.298 1005.782,1091.195 1015.222,1082.879 1015.022,1074.36 1024.721,1066.031 			"/>
			<polygon class="st0" points="1151.418,1235.956 959.704,1183.893 959.894,1193.977 956.359,1196.467 1145.945,1250.662 			"/>
			<polygon class="st0" points="1186.203,1142.492 1009.088,1094.01 1009.429,1102.814 1001.226,1109.195 1180.385,1158.124 			"/>
			<polygon class="st0" points="1172.802,1178.5 989.943,1128.842 990.254,1139.7 981.674,1145.243 1166.499,1195.434 			"/>
			<polygon class="st0" points="1179.266,1161.131 999.246,1111.967 998.989,1118.896 991.465,1125.945 1173.92,1175.494 			"/>
			<path class="st1" d="M1269.196,1132.465l76.515-213.906l-145.027-42.048l24.298-11.218l-14.165-4.092l-10.614,4.955l0.031-0.112
				l-52.477-14.464l11.331-5.321l-13.957-4.031l-24.016,11.212l-251.988-73.059l-1.68-0.488l-130.791,58.035l166.135,47.107
				l-559.136,238.39l989.129,259.353l1.614,0.423l310.578-136.31L1269.196,1132.465z M1256.784,1138.705l90.217,27.471
				l-175.412,43.06l40.755-109.508l32.324,10.732l8.972-9.243l0.579,10.326l9.781-11.802v8.406l6.895-8.035L1256.784,1138.705z
				 M1027.905,1061.877l1.379-0.947l-0.828-1.206l171.244,46.504l-5.716,15.358l-174.019-47.258l7.957-6.833L1027.905,1061.877z
				 M1001.226,1109.195l8.203-6.381l-0.341-8.805l177.114,48.482l-5.818,15.632L1001.226,1109.195z M1179.266,1161.131
				l-5.346,14.363l-182.455-49.549l7.524-7.049l0.256-6.929L1179.266,1161.131z M1010.687,1091.133l7.764-6.841l-0.167-7.111
				l174.581,47.41l-5.543,14.893L1010.687,1091.133z M1015.022,1074.36l0.2,8.519l-9.439,8.316l0.391,10.103l-10.017,7.794
				l-0.31,8.372l-9.18,8.599l0.343,11.931l-10.785,6.965l-0.346,12.145l-9.515,5.802l-0.337,10.496l-9.572,7.635l0.214,11.307
				l-4.255,2.997l-83.941-23.995l156.244-107.278l0.006,1.965L1015.022,1074.36z M959.894,1193.977l-0.19-10.084l191.715,52.063
				l-5.473,14.706l-189.587-54.195L959.894,1193.977z M961.526,1181.078l7.646-6.099l0.291-9.089l188.936,51.308l-5.862,15.752
				L961.526,1181.078z M971.932,1163.25l7.089-4.322l0.314-11.011l186.045,50.523l-5.862,15.751L971.932,1163.25z M981.674,1145.243
				l8.581-5.543l-0.312-10.858l182.859,49.658l-6.302,16.933L981.674,1145.243z M1252.226,1098.086l-8.454,8.711l-64.036-21.261
				l10.361-8.393L1252.226,1098.086z M1198.318,1076.543l2.068-2.21l62.193,21.315l-5.702,7.101l-0.173-6.527L1198.318,1076.543z
				 M1269,1099.794v-6.151l-59.023-19.815l0.437-0.925l63.861,19.993L1269,1099.794z M1143.295,853.665l52.609,15.271l-9.619,5.064
				H1187v-1.531l-20.755,9.616l-52.012-14.816L1143.295,853.665z M373.178,1121.256l114.472-48.805l186.106,53.201l5.701-3.477
				l5.184-3.161l-182.993-52.53l11.355-4.841l42.182,11.866l5.759-3.512l5.54-3.378l-39.412-10.974l41.417-17.658l54.338,15.695
				l-33.966,19.344l-7.199-2.025l-5.44,3.318l-5.79,3.531l25.19,7.045l5.697-3.475l5.458-3.328l-4.952-1.42l33.851-19.278
				l65.797,19.006l-39.466,17.201l-37.71-10.607l-5.52,3.366l-5.798,3.536l49.722,13.857l88.323-38.348l-8.474-2.448l-6.158-1.779
				l-21.156,9.221l-132.801-38.36l43.211-18.423l135.724,41.206l7.456,2.264l40.242-17.022l-8.126-2.347l-6.45-1.863l-25.869,11.275
				l-129.267-39.357l46.814-19.959l133.624,41.756l7.634,2.385l43.61-18.893l-7.825-2.26l-6.76-1.953l-29.293,12.768
				l-127.377-39.607l42.987-18.328l139.091,39.059l7.659,2.15l36.476-15.818l-7.502-2.167l-7.035-2.032l-22.536,9.823
				l-132.066-37.02l43.508-18.55l134.339,40.772l7.164,2.174l44.068-19.241l-7.043-2.034l-7.337-2.119l-30.224,13.173
				l-127.239-38.579l47.6-20.294l132.866,41.047l6.853,2.117l15.172-6.679l-6.878-1.987l-7.49-2.164l-1.163,0.507l-125.7-38.667
				l42.086-17.944l127.177,37.623l-25.685,11.169l7.609,2.198l6.853,1.98l39.171-17.075l-51.282-14.856l-256.509-74.31
				l103.364-45.864l239.791,69.522l-22.282,10.353l7.182,2.075l6.882,1.988l10.025-4.68l51.932,14.816l-10.162,4.826l13.891,4.012
				l22.101-10.318l145.757,42.259l-59.049,165.076l-65.162-20.694l-3.745,3.331l-5.834-2l-4.474,4.783l-5.539-1.867l-16.262,13.172
				l30.053,9.978l-2.425,6.516l-175.156-47.566l-1.804-2.628l-167.343,114.899l-120.511-34.449l-5.199,3.171l-5.878,3.585
				l417.665,119.441l-21.472,57.696L373.178,1121.256z M1333.601,1373.082l-203.165-53.27l39.806-106.957l182.738-44.858
				l264.439,80.522L1333.601,1373.082z"/>
			<g>
				<polygon class="st2" points="827.428,1031.952 819.794,1029.566 800.943,1037.715 809.069,1040.063 768.827,1057.084 
					761.37,1054.82 742.551,1062.956 751.024,1065.403 662.701,1103.752 612.979,1089.894 618.776,1086.358 601.317,1081.419 
					595.62,1084.894 570.43,1077.849 576.22,1074.318 560.944,1069.995 555.185,1073.507 513.002,1061.642 501.648,1066.483 
					684.641,1119.013 679.457,1122.175 730.805,1136.647 736.003,1133.476 856.515,1167.926 1010.12,1062.459 853.455,1020.676 				
					"/>
				<polygon class="st0" points="1187.498,882.668 1165.397,892.985 1151.505,888.973 1161.668,884.148 1109.735,869.331 
					1099.71,874.012 1092.828,872.024 1021.283,910.247 1072.566,925.104 1033.394,942.178 1026.541,940.198 1009.706,947.476 
					1016.584,949.462 1001.411,956.141 994.558,954.024 978.891,960.796 985.934,962.83 941.866,982.071 934.702,979.897 
					918.492,986.904 925.994,989.071 889.519,1004.889 881.86,1002.739 863.213,1010.799 871.038,1013.059 853.455,1020.676 
					1010.12,1062.459 1023.858,1053.027 1025.662,1055.655 1200.818,1103.221 1203.243,1096.706 1173.189,1086.728 
					1189.452,1073.555 1194.991,1075.422 1199.465,1070.639 1205.299,1072.639 1209.043,1069.308 1274.206,1090.003 
					1333.254,924.927 				"/>
			</g>
		</g>
		<g id="XMLID_7_">
			<polygon class="st0" points="792.491,965.651 755.78,984.005 754.285,1101.48 838.606,1128.604 877,1107.981 877,992.775 			"/>
			<path class="st1" d="M791.501,959.203l-41.902,21.123l-1.452,125.476l90.533,29.291l43.32-23.593V988.44L791.501,959.203z
				 M791.616,972.099l67.96,22.173l-21.619,12.348l-67.692-23.643L791.616,972.099z M760.982,992.39l71.545,24.989l-1.339,103.027
				l-71.231-23.246L760.982,992.39z M842.027,1118.387l0.756-101.737L866,1003.065v101.398L842.027,1118.387z"/>
		</g>
	</g>
</g>
</svg>
