<?xml version="1.0" encoding="utf-8"?>
<!-- Generator: Adobe Illustrator 18.1.1, SVG Export Plug-In . SVG Version: 6.00 Build 0)  -->
<svg version="1.1" id="레이어_1" xmlns="http://www.w3.org/2000/svg" xmlns:xlink="http://www.w3.org/1999/xlink" x="0px"
	 y="0px" viewBox="0 0 2000 2000" style="enable-background:new 0 0 2000 2000;" xml:space="preserve">
<style type="text/css">
	.st0{fill:#595757;}
	.st1{fill:#F27575;}
	.st2{fill:#FFFFFF;}
</style>
<g>
	<polygon class="st0" points="1253.895,1094.68 1253.895,1094.709 1253.901,1094.68 	"/>
	<polygon class="st1" points="1206.67,1100.237 1195.585,1132.073 678.628,984.245 600.974,1016.52 1244.872,1207.415 
		1397.605,1139.744 1252.857,1096.911 1253.202,1095.83 1212.129,1092.367 1209.255,1100.445 	"/>
	<path class="st0" d="M1269.032,1073.22l-8.671,1.87l-6.322,18.348l-41.051-3.526l25.493-68.912h0.038l72.213-183.302
		l-183.198-51.68l-548.347,232.202L1169,1191.843v0.057l77.197,22.843l174.07-77.268l-157.65-45.27L1269.032,1073.22z
		 M1253.895,1094.68h0.006l-0.006,0.029V1094.68z M1195.585,1132.073l11.084-31.837l2.586,0.208l2.874-8.078l41.073,3.464
		l-0.345,1.081l144.748,42.833l-152.733,67.672L600.974,1016.52l77.654-32.274L1195.585,1132.073z"/>
	<polygon class="st2" points="1204.317,1100.047 1201.67,1099.834 1300.393,843.692 1128.446,794.821 682.351,983.28 
		1194.104,1129.424 	"/>
</g>
</svg>
