<?xml version="1.0" encoding="utf-8"?>
<svg version="1.1" xmlns="http://www.w3.org/2000/svg" xmlns:xlink="http://www.w3.org/1999/xlink" x="0px" y="0px"
	 viewBox="0 0 595.3 841.9" enable-background="new 0 0 595.3 841.9" xml:space="preserve">
<g>
	<rect y="266.6" fill="#FFFFFF" width="132.3" height="44.1"/>
	<path fill="#FFFFFF" d="M66.1,332.8C29.6,332.8,0,362.4,0,398.9S29.6,465,66.1,465s66.1-29.6,66.1-66.1S102.7,332.8,66.1,332.8z
		 M66.1,420.9c-12.2,0-22-9.9-22-22c0-12.2,9.9-22,22-22s22,9.9,22,22S78.3,420.9,66.1,420.9z"/>
	<path fill="#FFFFFF" d="M220.5,332.8c0,0-66.1,0-66.1,66.1c0,0,0,66.1,66.1,66.1c0,0,22,0,22,22v66.1h44.1v-66.1
		c0,0,0-66.1-66.1-66.1c0,0-22,0-22-22c0,0,0-22,22-22h66.1v-44.1H220.5z"/>
	<path fill="#FFFFFF" d="M308.7,244.6v132.3h132.3V244.6H308.7z M396.9,332.8h-44.1v-44.1h44.1V332.8z"/>
	<path fill="#FFFFFF" d="M440.9,420.9h-66.1c0,0-66.1,0-66.1,66.1v44.1c0,0,0,66.1,66.1,66.1h66.1v-44.1h-66.1c0,0-22,0-22-22v-44.1
		c0,0,0-22,22-22h66.1V420.9z"/>
	<polygon fill="#FFFFFF" points="463,244.6 463,288.7 551.2,288.7 551.2,376.8 595.3,376.8 595.3,244.6 	"/>
	<path fill="#FFFFFF" d="M463,332.8h44.1v66.1c0,0,0,22,22,22c0,0,66.1,0,66.1,66.1c0,0,0,66.1-66.1,66.1H463v-44.1h66.1
		c0,0,22,0,22-22c0,0,0-22-22-22c0,0-66.1,0-66.1-66.1L463,332.8L463,332.8z"/>
</g>
</svg>
