<?xml version="1.0" encoding="iso-8859-1"?>
<!-- Generator: Adobe Illustrator 18.1.1, SVG Export Plug-In . SVG Version: 6.00 Build 0)  -->
<svg version="1.1" id="Layer_1" xmlns="http://www.w3.org/2000/svg" xmlns:xlink="http://www.w3.org/1999/xlink" x="0px" y="0px"
	 viewBox="0 0 617.15 113.577" style="enable-background:new 0 0 617.15 113.577;" xml:space="preserve">
<g>
	<path style="fill:#FFFFFF;" d="M222.808,7.639c0-1.202,0.894-2.184,1.936-2.184c1.091,0,1.985,0.983,1.985,2.184v20.911
		L246.535,6.22c0.447-0.437,0.893-0.765,1.539-0.765c1.042,0,1.885,1.037,1.885,2.13c0,0.601-0.247,1.092-0.645,1.528l-12.31,13.432
		l13.203,17.909c0.347,0.492,0.547,0.928,0.547,1.583c0,1.147-0.894,2.184-1.985,2.184c-0.745,0-1.241-0.437-1.589-0.983
		l-12.955-17.744l-7.495,8.245v8.299c0,1.201-0.894,2.184-1.985,2.184c-1.042,0-1.936-0.983-1.936-2.184V7.639z"/>
	<path style="fill:#FFFFFF;" d="M256.066,41.109l14.098-33.906c0.496-1.201,1.241-1.911,2.481-1.911h0.199
		c1.191,0,1.985,0.71,2.432,1.911l14.097,33.852c0.149,0.382,0.248,0.764,0.248,1.092c0,1.146-0.844,2.075-1.886,2.075
		c-0.943,0-1.588-0.71-1.935-1.584l-3.624-8.79h-19.061l-3.623,8.9c-0.347,0.928-0.992,1.474-1.886,1.474
		c-0.992,0-1.787-0.874-1.787-1.966C255.818,41.928,255.868,41.546,256.066,41.109z M280.637,29.916l-7.992-19.547l-7.992,19.547
		H280.637z"/>
	<path style="fill:#FFFFFF;" d="M297.465,7.639c0-1.202,0.894-2.184,1.936-2.184c1.092,0,1.985,0.983,1.985,2.184v34.397
		c0,1.201-0.893,2.184-1.985,2.184c-1.042,0-1.936-0.983-1.936-2.184V7.639z"/>
	<path style="fill:#FFFFFF;" d="M310.321,39.361c-0.447-0.327-0.745-0.928-0.745-1.638c0-1.201,0.844-2.129,1.886-2.129
		c0.497,0,0.943,0.218,1.191,0.491c3.276,3.057,6.552,4.532,10.97,4.532c4.666,0,7.743-2.73,7.743-6.497v-0.11
		c0-3.548-1.737-5.569-9.034-7.261c-7.992-1.911-11.665-4.75-11.665-11.03v-0.109c0-6.006,4.815-10.428,11.417-10.428
		c4.566,0,7.892,1.255,11.069,3.767c0.397,0.328,0.844,0.929,0.844,1.748c0,1.146-0.844,2.075-1.886,2.075
		c-0.447,0-0.795-0.11-1.142-0.382c-2.928-2.348-5.758-3.331-8.984-3.331c-4.517,0-7.396,2.729-7.396,6.17v0.109
		c0,3.604,1.786,5.624,9.43,7.426c7.744,1.856,11.317,4.969,11.317,10.81v0.11c0,6.552-4.964,10.81-11.863,10.81
		C318.412,44.494,314.193,42.747,310.321,39.361z"/>
	<path style="fill:#FFFFFF;" d="M351.768,9.714h-10.076c-0.993,0-1.837-0.874-1.837-1.966c0-1.092,0.844-2.02,1.837-2.02h24.124
		c0.992,0,1.836,0.928,1.836,2.02c0,1.092-0.844,1.966-1.836,1.966h-10.077v32.322c0,1.201-0.893,2.184-1.985,2.184
		c-1.091,0-1.985-0.983-1.985-2.184V9.714z"/>
	<path style="fill:#FFFFFF;" d="M219.348,67.02c0-0.814,0.21-1.273,0.63-1.374c0.419-0.102,0.97-0.152,1.648-0.152
		c1.486,0,2.973,0.008,4.459,0.025c1.486,0.018,2.989,0.026,4.508,0.026v-3.818c0-0.542,0.177-0.908,0.533-1.095
		c0.356-0.186,0.759-0.28,1.212-0.28c0.419,0,0.807,0.102,1.163,0.305c0.355,0.203,0.534,0.559,0.534,1.069v3.818h10.034
		c0.484,0,0.808,0.127,0.97,0.381c0.161,0.255,0.242,0.637,0.242,1.145c0,0.407-0.089,0.746-0.266,1.018
		c-0.178,0.272-0.493,0.407-0.946,0.407h-1.212c-3.75,0-7.466-0.008-11.15-0.026c-3.684-0.016-7.434-0.025-11.246-0.025
		c-0.42,0-0.711-0.135-0.872-0.407C219.429,67.766,219.348,67.427,219.348,67.02z M243.101,79.083c0,1.154-0.267,2.214-0.8,3.181
		c-0.534,0.967-1.253,1.807-2.157,2.52c-1.002,0.713-2.174,1.282-3.515,1.705c-1.341,0.425-2.787,0.637-4.338,0.637
		c-1.552,0-2.998-0.195-4.339-0.585c-1.341-0.39-2.513-0.942-3.515-1.655c-0.969-0.644-1.713-1.476-2.23-2.494
		c-0.518-1.018-0.775-2.12-0.775-3.308c0-1.086,0.258-2.129,0.775-3.13c0.517-1.001,1.276-1.858,2.279-2.571
		c1.001-0.746,2.164-1.315,3.49-1.705c1.325-0.39,2.763-0.586,4.315-0.586c1.551,0,2.989,0.204,4.314,0.611
		c1.324,0.407,2.504,0.985,3.539,1.731c0.904,0.713,1.623,1.57,2.157,2.571C242.834,77.005,243.101,78.031,243.101,79.083z
		 M239.514,79.083c0-0.679-0.169-1.315-0.509-1.909c-0.339-0.593-0.817-1.111-1.43-1.553c-0.712-0.44-1.503-0.78-2.376-1.018
		c-0.873-0.237-1.842-0.356-2.908-0.356c-1.132,0-2.126,0.119-2.982,0.356c-0.856,0.238-1.623,0.594-2.302,1.069
		c-0.614,0.442-1.108,0.959-1.478,1.553c-0.372,0.594-0.558,1.214-0.558,1.858c0,1.425,0.679,2.604,2.036,3.537
		c1.357,0.934,3.118,1.4,5.284,1.4c1.033,0,1.987-0.127,2.86-0.382c0.872-0.254,1.615-0.602,2.23-1.043
		c0.71-0.407,1.244-0.908,1.6-1.502C239.336,80.5,239.514,79.829,239.514,79.083z M255.171,108.553c0,0.407-0.202,0.73-0.605,0.967
		c-0.405,0.237-0.817,0.356-1.236,0.356c-0.323,0-0.687-0.119-1.091-0.356c-0.405-0.238-0.606-0.56-0.606-0.967v-14.15
		c-0.129-0.271-0.339-0.491-0.63-0.662c-0.291-0.169-0.63-0.254-1.018-0.254h-20.553c-0.485,0-0.825-0.153-1.018-0.459
		c-0.194-0.305-0.291-0.695-0.291-1.17c0-0.475,0.097-0.873,0.291-1.196c0.193-0.322,0.533-0.484,1.018-0.484h22.249
		c0.904,0,1.713,0.356,2.424,1.069c0.711,0.713,1.066,1.578,1.066,2.596V108.553z M255.22,84.02c0,0.883-0.242,1.595-0.727,2.138
		c-0.484,0.543-0.938,0.814-1.357,0.814c-0.324,0-0.654-0.119-0.994-0.356c-0.339-0.237-0.509-0.627-0.509-1.17V61.929
		c0-0.509,0.21-0.873,0.63-1.094c0.42-0.22,0.84-0.331,1.261-0.331c0.517,0,0.929,0.111,1.236,0.331
		c0.307,0.221,0.46,0.585,0.46,1.094v10.028h6.205c0.484,0,0.832,0.161,1.042,0.484c0.21,0.322,0.315,0.721,0.315,1.196
		c0,0.407-0.106,0.788-0.315,1.145c-0.21,0.356-0.558,0.534-1.042,0.534h-6.205V84.02z"/>
	<path style="fill:#FFFFFF;" d="M275.24,62.337c0.581,0,0.985,0.152,1.212,0.458c0.226,0.306,0.388,0.679,0.485,1.12
		c0.064,0.509,0.08,1.027,0.048,1.552c-0.033,0.526-0.048,1.027-0.048,1.502c0.031,1.29,0.266,2.519,0.703,3.69
		c0.436,1.17,1.009,2.299,1.72,3.385c0.776,1.12,1.648,2.172,2.618,3.156c0.97,0.984,2.052,1.901,3.248,2.748
		c0.291,0.272,0.525,0.484,0.703,0.637c0.177,0.152,0.347,0.28,0.509,0.381c0.064,0.102,0.105,0.187,0.122,0.255
		c0.015,0.069,0.024,0.152,0.024,0.255c0,0.17-0.048,0.348-0.146,0.534c-0.097,0.187-0.21,0.365-0.339,0.534
		c-0.162,0.203-0.347,0.381-0.557,0.534c-0.21,0.152-0.477,0.229-0.8,0.229c-0.227,0-0.485-0.085-0.776-0.255l-1.26-0.916
		c-1.842-1.255-3.361-2.571-4.557-3.945c-1.196-1.374-2.133-2.858-2.812-4.454c-0.614,1.832-1.64,3.631-3.078,5.395
		c-1.438,1.765-3.078,3.207-4.92,4.326c-0.193,0.069-0.323,0.102-0.388,0.102c0.032,0-0.048-0.017-0.242-0.052
		c-0.26-0.033-0.551-0.102-0.873-0.203c-0.388-0.102-0.711-0.263-0.97-0.484c-0.259-0.22-0.388-0.517-0.388-0.891
		c0-0.407,0.177-0.746,0.534-1.018c2.682-2.002,4.774-4.139,6.278-6.413c1.503-2.273,2.254-4.852,2.254-7.737v-3.053
		c0-0.476,0.194-0.823,0.582-1.044C274.513,62.447,274.884,62.337,275.24,62.337z M303.356,98.729c0,1.731-0.347,3.258-1.042,4.581
		c-0.695,1.324-1.689,2.46-2.981,3.411c-1.326,0.95-2.925,1.671-4.799,2.164c-1.874,0.491-3.959,0.738-6.253,0.738
		c-2.198,0-4.226-0.238-6.084-0.713c-1.858-0.476-3.434-1.188-4.726-2.138c-1.325-0.95-2.343-2.087-3.054-3.41
		c-0.711-1.324-1.066-2.867-1.066-4.633c0-1.73,0.356-3.282,1.066-4.657c0.711-1.374,1.729-2.52,3.054-3.436
		c1.292-0.95,2.868-1.671,4.726-2.164c1.858-0.492,3.886-0.738,6.084-0.738c2.294,0,4.37,0.255,6.229,0.764
		c1.858,0.509,3.449,1.239,4.775,2.188c1.292,0.916,2.294,2.061,3.005,3.436C303,95.498,303.356,97.033,303.356,98.729z
		 M299.769,98.729c0-2.409-1.026-4.283-3.078-5.624c-2.052-1.34-4.856-2.01-8.41-2.01c-1.714,0-3.273,0.17-4.679,0.509
		c-1.406,0.34-2.61,0.832-3.611,1.477c-0.937,0.645-1.673,1.459-2.205,2.442c-0.534,0.985-0.8,2.054-0.8,3.207
		c0,1.188,0.266,2.258,0.8,3.207c0.533,0.95,1.268,1.747,2.205,2.392c1.001,0.611,2.205,1.095,3.611,1.451
		c1.406,0.356,2.965,0.534,4.679,0.534c3.554,0,6.358-0.671,8.41-2.01C298.743,102.963,299.769,101.106,299.769,98.729z
		 M293.661,84.427c0,0.509-0.146,0.866-0.436,1.069c-0.291,0.204-0.696,0.305-1.212,0.305c-0.42,0-0.808-0.102-1.163-0.305
		c-0.356-0.203-0.534-0.56-0.534-1.069v-21.53c0-0.542,0.177-0.908,0.534-1.094c0.355-0.186,0.743-0.281,1.163-0.281
		c0.517,0,0.921,0.094,1.212,0.281c0.29,0.186,0.436,0.551,0.436,1.094v8.5h6.156v-9.518c0-0.576,0.153-0.941,0.461-1.094
		c0.306-0.153,0.718-0.229,1.236-0.229c0.42,0,0.8,0.076,1.139,0.229c0.339,0.152,0.509,0.517,0.509,1.094v23.006
		c0,0.543-0.17,0.916-0.509,1.12c-0.339,0.203-0.719,0.305-1.139,0.305c-0.518,0-0.929-0.102-1.236-0.305
		c-0.308-0.204-0.461-0.577-0.461-1.12V74.706h-6.156V84.427z"/>
	<path style="fill:#FFFFFF;" d="M307.379,84.223c0-0.983,0.437-1.476,1.309-1.476h41.786c0.904,0,1.357,0.493,1.357,1.476
		c0,0.442-0.121,0.807-0.363,1.095c-0.243,0.289-0.574,0.433-0.994,0.433h-18.13v8.093c0,0.476-0.17,0.84-0.509,1.094
		c-0.339,0.255-0.767,0.382-1.284,0.382c-0.421,0-0.825-0.127-1.212-0.382c-0.388-0.254-0.581-0.618-0.581-1.094v-8.093h-20.069
		c-0.453,0-0.784-0.144-0.994-0.433C307.484,85.03,307.379,84.665,307.379,84.223z M338.161,62.337c0.646,0,1.316,0.043,2.012,0.127
		c0.695,0.085,1.365,0.247,2.012,0.484c0.516,0.272,0.961,0.662,1.332,1.171c0.372,0.509,0.558,1.17,0.558,1.985v6.465
		c0,1.493-0.372,2.613-1.115,3.359c-0.744,0.746-1.714,1.307-2.908,1.68c-1.358,0.373-2.99,0.654-4.896,0.84
		c-1.907,0.187-3.878,0.28-5.914,0.28c-1.777,0-3.515-0.077-5.211-0.229c-1.696-0.153-3.304-0.415-4.823-0.789
		c-1.552-0.407-2.618-1.018-3.199-1.832c-0.582-0.814-0.873-1.917-0.873-3.308v-6.465c0-0.475,0.089-0.942,0.267-1.399
		c0.177-0.458,0.444-0.873,0.8-1.247c0.388-0.339,0.784-0.611,1.188-0.815c0.403-0.203,0.879-0.305,1.43-0.305H338.161z
		 M316.977,93.666c0.356-0.186,0.727-0.281,1.116-0.281c0.484,0,0.879,0.102,1.187,0.305c0.306,0.204,0.46,0.645,0.46,1.324
		c0,0.136-0.008,0.493-0.024,1.069c-0.017,0.577-0.024,1.307-0.024,2.188c0,0.68,0.007,1.392,0.024,2.138
		c0.016,0.747,0.121,1.46,0.315,2.138c0.194,0.747,0.638,1.324,1.333,1.731c0.694,0.407,1.51,0.73,2.448,0.967
		c0.904,0.271,1.842,0.424,2.812,0.458c0.969,0.034,1.873,0.051,2.714,0.051c1.713,0,3.377-0.119,4.993-0.356
		c1.616-0.238,3.054-0.476,4.315-0.713c1.228-0.272,2.6-0.628,4.12-1.069c0.129-0.034,0.291-0.051,0.485-0.051
		c0.775,0,1.163,0.458,1.163,1.374c0,0.441-0.081,0.822-0.243,1.145c-0.162,0.322-0.484,0.585-0.969,0.788
		c-1.066,0.408-2.279,0.797-3.636,1.171c-1.163,0.271-2.553,0.526-4.169,0.763c-1.616,0.237-3.361,0.356-5.235,0.356
		c-1.584,0-3.273-0.102-5.066-0.305c-1.794-0.203-3.531-0.559-5.211-1.069c-1.228-0.543-2.036-1.247-2.424-2.112
		c-0.388-0.866-0.647-1.807-0.776-2.825c-0.194-0.78-0.332-1.62-0.413-2.519c-0.081-0.899-0.121-1.723-0.121-2.469
		c0-0.95,0.064-1.951,0.194-3.003C316.411,94.251,316.622,93.852,316.977,93.666z M320.128,65.696c-0.743,0-1.26,0.339-1.551,1.018
		v5.294c0,0.814,0.404,1.434,1.211,1.858c0.808,0.425,1.745,0.738,2.812,0.942c1.099,0.272,2.255,0.425,3.466,0.458
		c1.212,0.035,2.254,0.051,3.127,0.051c1.034,0,2.052-0.051,3.054-0.152c1.001-0.102,1.873-0.204,2.617-0.305
		c0.84-0.068,1.543-0.144,2.109-0.229c0.565-0.085,0.977-0.144,1.236-0.178c0.517-0.204,1.002-0.458,1.455-0.763
		c0.451-0.305,0.727-0.866,0.824-1.68v-4.683c0-0.373-0.073-0.713-0.219-1.018c-0.145-0.305-0.347-0.509-0.605-0.611H320.128z"/>
	<path style="fill:#FFFFFF;" d="M377.038,81.016c0,1.324-0.267,2.52-0.8,3.589c-0.534,1.069-1.236,1.943-2.109,2.621
		c-0.97,0.781-2.085,1.357-3.345,1.731c-0.841,0.272-1.697,0.458-2.569,0.559v5.548c1.131,0,2.181-0.025,3.151-0.077
		c0.97-0.051,1.971-0.11,3.005-0.178c0.97-0.169,1.956-0.331,2.958-0.483c1.001-0.153,2.1-0.348,3.296-0.586
		c0.388-0.102,0.775-0.007,1.163,0.28c0.388,0.289,0.613,0.67,0.679,1.145c0.064,0.442-0.041,0.832-0.315,1.171
		c-0.275,0.339-0.605,0.577-0.994,0.713c-1.26,0.238-2.505,0.441-3.732,0.61c-1.228,0.171-2.441,0.305-3.635,0.408
		c-1.261,0.102-2.57,0.17-3.926,0.203c-1.358,0.035-2.796,0.051-4.315,0.051h-12.119c-0.388-0.102-0.703-0.306-0.946-0.61
		c-0.242-0.305-0.364-0.645-0.364-1.018c0-0.339,0.113-0.662,0.339-0.967c0.226-0.305,0.534-0.526,0.921-0.662h11.44v-5.599
		c-0.679-0.102-1.358-0.254-2.035-0.458c-1.261-0.373-2.327-0.933-3.199-1.68c-0.97-0.713-1.738-1.603-2.303-2.672
		c-0.566-1.069-0.848-2.281-0.848-3.639c0-1.221,0.274-2.367,0.824-3.436c0.549-1.069,1.292-2.01,2.23-2.824
		c0.84-0.78,1.891-1.4,3.151-1.858c1.261-0.458,2.618-0.687,4.072-0.687c2.973,0,5.445,0.848,7.417,2.545v-0.051
		c0.937,0.883,1.656,1.824,2.157,2.825C376.788,78.531,377.038,79.694,377.038,81.016z M354.206,68.088
		c0-0.814,0.243-1.281,0.727-1.4c0.485-0.118,1.034-0.178,1.648-0.178c1.389,0,2.787,0.009,4.193,0.026
		c1.406,0.018,2.803,0.026,4.193,0.026v-4.734c0-0.543,0.177-0.908,0.533-1.094c0.356-0.186,0.743-0.281,1.164-0.281
		c0.451,0,0.855,0.102,1.212,0.305c0.355,0.204,0.533,0.56,0.533,1.069v4.734h9.744c0.452,0,0.759,0.144,0.921,0.432
		c0.161,0.289,0.242,0.671,0.242,1.145c0,0.442-0.081,0.823-0.242,1.145c-0.162,0.322-0.469,0.484-0.921,0.484h-1.163
		c-3.556,0-7.135-0.008-10.738-0.026c-3.603-0.017-7.182-0.026-10.737-0.026c-0.518,0-0.865-0.152-1.042-0.458
		C354.295,68.953,354.206,68.564,354.206,68.088z M373.403,81.016c0-0.678-0.154-1.349-0.461-2.01
		c-0.307-0.662-0.735-1.264-1.284-1.806c-0.647-0.475-1.374-0.866-2.182-1.171c-0.808-0.306-1.729-0.458-2.762-0.458
		c-0.97,0-1.859,0.145-2.667,0.433c-0.808,0.289-1.471,0.67-1.988,1.145c-0.646,0.509-1.123,1.104-1.43,1.782
		s-0.46,1.374-0.46,2.086c0,1.596,0.613,2.91,1.842,3.945c1.228,1.036,2.796,1.553,4.703,1.553c2.035,0,3.66-0.517,4.871-1.553
		C372.797,83.926,373.403,82.612,373.403,81.016z M388.721,108.35c0,0.542-0.178,0.907-0.534,1.094
		c-0.355,0.186-0.743,0.28-1.163,0.28c-0.453,0-0.857-0.094-1.211-0.28c-0.356-0.187-0.534-0.551-0.534-1.094V61.878
		c0-0.542,0.177-0.907,0.534-1.094c0.355-0.186,0.758-0.281,1.211-0.281c0.42,0,0.808,0.094,1.163,0.281
		c0.356,0.187,0.534,0.551,0.534,1.094v17.713h6.738c0.484,0,0.832,0.145,1.042,0.433c0.21,0.289,0.315,0.654,0.315,1.095
		c0,0.476-0.106,0.874-0.315,1.196c-0.21,0.322-0.558,0.483-1.042,0.483l-6.738-0.051V108.35z"/>
	<path style="fill:#FFFFFF;" d="M397.204,84.071c0-0.509,0.104-0.916,0.314-1.221c0.21-0.305,0.509-0.459,0.897-0.459h16.87v-8.652
		c0-0.441,0.177-0.78,0.533-1.018c0.356-0.237,0.759-0.356,1.212-0.356c0.419,0,0.816,0.119,1.187,0.356
		c0.371,0.238,0.557,0.577,0.557,1.018v8.652h21.087c0.42,0,0.71,0.153,0.873,0.459c0.161,0.305,0.242,0.713,0.242,1.221
		c0,0.407-0.081,0.772-0.242,1.095c-0.163,0.322-0.453,0.484-0.873,0.484h-41.446c-0.388,0-0.687-0.161-0.897-0.484
		C397.308,84.843,397.204,84.478,397.204,84.071z M433.803,100.613c0,1.324-0.332,2.571-0.994,3.741
		c-0.663,1.17-1.64,2.18-2.932,3.028c-1.293,0.882-2.86,1.569-4.702,2.061c-1.843,0.492-3.911,0.738-6.205,0.738
		c-2.359,0-4.46-0.247-6.302-0.738c-1.842-0.492-3.361-1.179-4.557-2.061c-1.26-0.849-2.23-1.85-2.908-3.003
		c-0.679-1.153-1.018-2.409-1.018-3.766c0-2.953,1.268-5.276,3.805-6.973c2.537-1.696,6.196-2.545,10.98-2.545
		c4.686,0,8.329,0.849,10.931,2.545C432.502,95.337,433.803,97.66,433.803,100.613z M433.172,66.103
		c0,0.815-0.017,1.578-0.048,2.291c-0.032,0.713-0.081,1.476-0.145,2.29c-0.162,0.883-0.315,1.892-0.461,3.028
		c-0.145,1.137-0.347,2.486-0.605,4.047c-0.065,0.407-0.243,0.713-0.534,0.917c-0.291,0.203-0.646,0.305-1.066,0.305
		c-0.55,0-0.938-0.169-1.163-0.509c-0.227-0.339-0.339-0.763-0.339-1.272c0.129-1.255,0.258-2.342,0.388-3.258
		c0.129-0.916,0.243-1.713,0.339-2.392c0.065-0.679,0.121-1.306,0.169-1.884c0.049-0.576,0.073-1.238,0.073-1.985
		c0-0.373-0.033-0.704-0.098-0.993c-0.065-0.288-0.227-0.466-0.484-0.534h-23.511c-0.775-0.102-1.163-0.644-1.163-1.628
		c0-0.984,0.388-1.528,1.163-1.629h24.432c1.098,0,1.873,0.272,2.326,0.815C432.897,64.254,433.14,65.052,433.172,66.103z
		 M430.167,100.613c0-1.935-0.962-3.478-2.884-4.632c-1.923-1.153-4.679-1.731-8.266-1.731c-3.684,0-6.495,0.577-8.435,1.731
		c-1.939,1.154-2.908,2.697-2.908,4.632c0,0.849,0.25,1.654,0.751,2.418c0.501,0.763,1.252,1.433,2.255,2.01
		c0.904,0.577,2.052,1.035,3.441,1.374c1.39,0.339,3.022,0.509,4.896,0.509c1.777,0,3.361-0.17,4.751-0.509
		c1.389-0.339,2.585-0.797,3.587-1.374c0.937-0.577,1.64-1.247,2.109-2.01C429.932,102.267,430.167,101.462,430.167,100.613z"/>
	<path style="fill:#FFFFFF;" d="M445.727,82.137c2.165-0.746,4.193-1.706,6.084-2.876c1.89-1.17,3.594-2.434,5.114-3.792
		c1.422-1.357,2.553-2.749,3.394-4.174c0.84-1.425,1.26-2.766,1.26-4.021c0-0.577-0.178-0.967-0.533-1.171h-14.155
		c-0.517,0-0.873-0.16-1.066-0.484c-0.194-0.322-0.291-0.687-0.291-1.094c0-0.509,0.097-0.908,0.291-1.196
		c0.193-0.288,0.549-0.433,1.066-0.433h13.718c0.776,0,1.454,0.043,2.036,0.127c0.582,0.085,1.066,0.247,1.454,0.484
		c0.388,0.272,0.711,0.654,0.97,1.145c0.258,0.492,0.388,1.145,0.388,1.96c0,1.628-0.509,3.385-1.527,5.268
		c-1.018,1.883-2.351,3.724-4,5.522c-1.681,1.698-3.66,3.257-5.938,4.683c-2.279,1.425-4.662,2.512-7.151,3.258
		c-0.097,0.034-0.275,0.051-0.533,0.051c-0.356,0-0.672-0.186-0.946-0.56c-0.275-0.373-0.412-0.831-0.412-1.374
		c0-0.271,0.065-0.534,0.194-0.788C445.274,82.417,445.468,82.238,445.727,82.137z M451.932,92.316
		c0.064-0.542,0.274-0.907,0.63-1.094c0.355-0.186,0.742-0.281,1.163-0.281c0.388,0,0.759,0.102,1.115,0.306
		c0.355,0.204,0.534,0.662,0.534,1.374c0,0.136-0.024,0.578-0.073,1.324c-0.048,0.746-0.073,1.815-0.073,3.207
		c0,0.883,0.016,1.773,0.048,2.672c0.032,0.9,0.129,1.723,0.291,2.469c0.097,0.848,0.476,1.492,1.139,1.934
		c0.663,0.441,1.462,0.78,2.4,1.018c0.84,0.271,1.777,0.424,2.812,0.458c1.034,0.034,1.922,0.051,2.667,0.051
		c1.777,0,3.457-0.119,5.041-0.356c1.583-0.238,2.989-0.476,4.217-0.713c1.195-0.272,2.504-0.628,3.926-1.069
		c0.129-0.034,0.291-0.051,0.484-0.051c0.679,0,1.018,0.458,1.018,1.374c0,0.441-0.089,0.822-0.267,1.145
		c-0.177,0.322-0.46,0.585-0.848,0.788c0,0.034-0.332,0.161-0.994,0.382c-0.663,0.22-1.575,0.484-2.739,0.789
		c-1.195,0.271-2.593,0.517-4.192,0.738c-1.6,0.221-3.386,0.331-5.357,0.331c-1.486,0-3.022-0.102-4.605-0.305
		c-1.583-0.204-3.167-0.543-4.75-1.018c-1.228-0.543-2.06-1.247-2.496-2.112c-0.436-0.866-0.72-1.807-0.848-2.825
		c-0.163-0.983-0.267-1.993-0.315-3.028c-0.048-1.035-0.073-1.993-0.073-2.876c0-1.017,0.008-1.806,0.025-2.367
		c0.015-0.559,0.039-0.992,0.073-1.298c0-0.271,0.007-0.458,0.024-0.559C451.924,92.622,451.932,92.486,451.932,92.316z
		 M478.69,91.35c0,0.509-0.153,0.874-0.46,1.094c-0.307,0.221-0.719,0.331-1.236,0.331c-0.421,0-0.833-0.11-1.237-0.331
		c-0.405-0.22-0.606-0.585-0.606-1.094V61.981c0-0.509,0.201-0.857,0.606-1.044c0.404-0.186,0.816-0.28,1.237-0.28
		c0.517,0,0.929,0.094,1.236,0.28c0.307,0.187,0.46,0.534,0.46,1.044v12.114h6.205c0.452,0,0.8,0.152,1.042,0.458
		c0.243,0.305,0.364,0.713,0.364,1.222c0,0.407-0.121,0.788-0.364,1.145c-0.243,0.356-0.59,0.534-1.042,0.534h-6.205V91.35z"/>
	<path style="fill:#FFFFFF;" d="M517.762,87.787c0,0.068,0.007,0.127,0.024,0.178c0.015,0.051,0.024,0.144,0.024,0.28
		c0,0.713-0.26,1.179-0.775,1.399c-0.518,0.222-1.083,0.382-1.697,0.484c-1.81,0.407-3.611,0.713-5.406,0.917
		c-1.794,0.203-3.773,0.322-5.938,0.356v15.83c0,0.542-0.211,0.933-0.63,1.17c-0.421,0.237-0.824,0.356-1.212,0.356
		c-0.356,0-0.735-0.127-1.139-0.382c-0.405-0.254-0.605-0.636-0.605-1.145V91.451h-11.634c-0.356-0.102-0.63-0.331-0.825-0.688
		c-0.193-0.356-0.29-0.687-0.29-0.992c0-0.373,0.097-0.713,0.29-1.018c0.194-0.305,0.468-0.509,0.825-0.61h13.961
		c1.195,0,2.318-0.034,3.369-0.102c1.05-0.068,2.109-0.169,3.175-0.305c1.066-0.135,2.164-0.288,3.296-0.458
		c1.131-0.169,2.327-0.389,3.587-0.662h-0.048c0.097-0.033,0.243-0.051,0.436-0.051c0.355,0,0.63,0.11,0.825,0.331
		C517.568,87.117,517.697,87.413,517.762,87.787z M513.496,72.058c0,2.919-0.979,5.209-2.933,6.872
		c-1.956,1.663-4.613,2.494-7.974,2.494c-3.297,0-5.922-0.831-7.878-2.494c-1.956-1.663-2.932-3.953-2.932-6.872
		c0-3.054,0.977-5.403,2.932-7.049c1.956-1.646,4.581-2.469,7.878-2.469c3.361,0,6.018,0.823,7.974,2.469
		C512.518,66.655,513.496,69.004,513.496,72.058z M510.151,72.008c0-1.968-0.671-3.52-2.012-4.658
		c-1.341-1.137-3.175-1.705-5.501-1.705c-2.327,0-4.162,0.568-5.502,1.705c-1.341,1.137-2.011,2.69-2.011,4.658
		c0,1.968,0.67,3.512,2.011,4.632c1.341,1.12,3.175,1.68,5.502,1.68c2.326,0,4.16-0.56,5.501-1.68
		C509.48,75.52,510.151,73.976,510.151,72.008z M525.033,108.401c0,0.542-0.186,0.891-0.557,1.043
		c-0.372,0.153-0.768,0.229-1.188,0.229c-0.453,0-0.889-0.076-1.308-0.229c-0.421-0.152-0.63-0.518-0.63-1.094V61.878
		c0-0.542,0.21-0.891,0.63-1.043c0.419-0.153,0.855-0.229,1.308-0.229c0.42,0,0.816,0.076,1.188,0.229
		c0.371,0.152,0.557,0.518,0.557,1.094V108.401z"/>
	<path style="fill:#FFFFFF;" d="M563.037,80.101c0,0.069,0.008,0.127,0.024,0.178c0.016,0.051,0.024,0.11,0.024,0.178
		c0,0.645-0.251,1.061-0.751,1.247c-0.501,0.187-1.058,0.331-1.672,0.433c-1.972,0.373-3.919,0.636-5.842,0.788
		c-1.923,0.153-3.999,0.264-6.229,0.331v6.006c0,0.781-0.114,1.434-0.339,1.96c-0.226,0.526-0.695,0.788-1.406,0.788
		c-0.776,0-1.244-0.28-1.405-0.839c-0.163-0.56-0.243-1.196-0.243-1.909v-6.006h-9.065c-0.42,0-0.832,0-1.236,0
		c-0.405,0-0.817-0.051-1.237-0.153c-0.388-0.068-0.695-0.194-0.921-0.381c-0.227-0.186-0.339-0.484-0.339-0.891
		c0-0.713,0.258-1.145,0.775-1.298c0.517-0.153,1.083-0.263,1.697-0.331h14.591c1.098,0,2.101-0.025,3.005-0.077
		c0.904-0.051,1.843-0.127,2.812-0.229c0.938-0.102,1.891-0.237,2.86-0.407c0.97-0.169,2.019-0.373,3.151-0.611
		c0.42,0,0.8,0.094,1.14,0.28C562.77,79.346,562.972,79.66,563.037,80.101z M559.062,69.717c0,1.222-0.259,2.309-0.776,3.258
		c-0.517,0.95-1.261,1.765-2.23,2.443c-0.905,0.645-2.029,1.154-3.37,1.527c-1.341,0.374-2.868,0.559-4.581,0.559
		c-1.648,0-3.143-0.185-4.484-0.559c-1.341-0.373-2.448-0.882-3.32-1.527c-0.97-0.679-1.721-1.493-2.254-2.443
		c-0.534-0.949-0.801-2.036-0.801-3.258c0-2.51,0.986-4.461,2.958-5.853c1.971-1.391,4.605-2.087,7.901-2.087
		c3.394,0,6.067,0.696,8.023,2.087C558.085,65.256,559.062,67.207,559.062,69.717z M555.572,69.666c0-1.527-0.663-2.714-1.987-3.563
		c-1.326-0.847-3.136-1.272-5.43-1.272c-2.263,0-4.072,0.425-5.429,1.272c-1.357,0.849-2.036,2.036-2.036,3.563
		c0,1.46,0.679,2.621,2.036,3.487c1.357,0.865,3.166,1.298,5.429,1.298c2.294,0,4.104-0.433,5.43-1.298
		C554.909,72.287,555.572,71.126,555.572,69.666z M542.532,94.658c0.064-0.611,0.25-1.009,0.558-1.196
		c0.306-0.186,0.719-0.28,1.236-0.28c0.355,0,0.711,0.119,1.066,0.356c0.355,0.238,0.534,0.645,0.534,1.221
		c0,0.035-0.017,0.204-0.048,0.509c-0.065,0.441-0.097,1.442-0.097,3.003c0,0.68,0.025,1.392,0.073,2.138
		c0.048,0.747,0.152,1.46,0.315,2.138c0.258,0.747,0.734,1.324,1.43,1.731c0.694,0.407,1.461,0.713,2.302,0.917
		c0.937,0.271,1.882,0.432,2.836,0.484c0.953,0.051,1.85,0.076,2.691,0.076c1.648,0,3.248-0.119,4.799-0.356
		c1.552-0.238,2.924-0.476,4.121-0.713c1.163-0.272,2.44-0.645,3.83-1.12h0.484c0.808,0,1.212,0.441,1.212,1.324
		c0,0.916-0.421,1.594-1.261,2.036c-1.035,0.407-2.214,0.796-3.539,1.17c-1.163,0.271-2.545,0.517-4.145,0.738
		c-1.599,0.22-3.337,0.33-5.211,0.33c-1.487,0-3.054-0.11-4.703-0.33c-1.648-0.222-3.313-0.569-4.993-1.044
		c-1.132-0.543-1.923-1.256-2.375-2.138c-0.452-0.883-0.743-1.815-0.872-2.8c-0.162-0.983-0.267-1.96-0.315-2.927
		c-0.048-0.966-0.073-1.84-0.073-2.621c0-0.746,0.007-1.349,0.024-1.806C542.427,95.04,542.467,94.759,542.532,94.658z
		 M554.845,87.684c0-0.983,0.436-1.476,1.309-1.476h10.374V62.184c0-0.644,0.185-1.069,0.558-1.272
		c0.371-0.204,0.767-0.305,1.187-0.305c0.517,0,0.946,0.11,1.285,0.331c0.339,0.221,0.509,0.636,0.509,1.247v29.827
		c0,0.578-0.169,0.985-0.509,1.222c-0.339,0.238-0.768,0.374-1.285,0.407c-0.227,0-0.469-0.102-0.727-0.305
		c-0.517-0.237-0.817-0.415-0.897-0.534c-0.081-0.118-0.121-0.314-0.121-0.585V89.16h-10.374c-0.421,0-0.744-0.135-0.97-0.407
		C554.958,88.482,554.845,88.126,554.845,87.684z"/>
	<path style="fill:#FFFFFF;" d="M602.642,81.119c0,1.256-0.259,2.417-0.776,3.486c-0.517,1.069-1.196,1.96-2.036,2.672
		c-0.97,0.814-2.085,1.425-3.345,1.832c-1.099,0.374-2.278,0.594-3.539,0.662v5.243c1.099,0,2.158-0.026,3.175-0.077
		c1.018-0.051,1.995-0.11,2.933-0.178c1.001-0.169,2.035-0.33,3.102-0.484c1.066-0.152,2.182-0.347,3.345-0.585
		c0.42,0,0.8,0.119,1.139,0.356c0.339,0.238,0.541,0.578,0.606,1.018c0,0.069,0.007,0.119,0.024,0.153
		c0.016,0.034,0.024,0.085,0.024,0.152c0,0.509-0.267,0.933-0.8,1.273c-0.534,0.339-1.253,0.61-2.157,0.814
		c-0.97,0.238-2.012,0.416-3.127,0.534c-1.115,0.119-2.239,0.196-3.37,0.229c-1.163,0.069-2.295,0.11-3.393,0.127
		c-1.1,0.018-1.988,0.025-2.667,0.025h-12.264c-0.615-0.067-1.172-0.194-1.673-0.381c-0.501-0.186-0.751-0.602-0.751-1.247
		c0-0.373,0.104-0.713,0.315-1.018c0.21-0.305,0.476-0.542,0.8-0.713h11.44v-5.497c-0.484-0.102-0.97-0.22-1.454-0.356
		c-1.261-0.407-2.327-1-3.199-1.781c-0.937-0.746-1.673-1.654-2.206-2.723c-0.534-1.069-0.8-2.247-0.8-3.537
		c0-1.255,0.275-2.409,0.825-3.461c0.549-1.051,1.292-1.968,2.23-2.749c0.84-0.746,1.89-1.34,3.151-1.781
		c1.261-0.44,2.617-0.662,4.072-0.662c1.519,0,2.908,0.229,4.168,0.688c1.261,0.458,2.375,1.061,3.345,1.806
		c0.872,0.815,1.567,1.74,2.085,2.775C602.383,78.769,602.642,79.897,602.642,81.119z M579.761,68.088
		c0-0.814,0.274-1.281,0.825-1.4c0.549-0.118,1.098-0.178,1.648-0.178c1.389,0,2.779,0.009,4.169,0.026
		c1.389,0.018,2.779,0.026,4.169,0.026V62.54c0-0.746,0.097-1.331,0.291-1.756c0.193-0.424,0.646-0.637,1.357-0.637
		c0.808,0,1.301,0.204,1.479,0.611c0.177,0.407,0.266,1.001,0.266,1.781v4.022h9.696c0.452,0,0.775,0.144,0.969,0.432
		c0.194,0.289,0.291,0.671,0.291,1.145c0,0.442-0.097,0.832-0.291,1.17c-0.193,0.34-0.517,0.509-0.969,0.509h-1.164
		c-3.523,0-7.069-0.008-10.64-0.026c-3.571-0.017-7.134-0.025-10.689-0.025c-0.518,0-0.881-0.161-1.091-0.484
		C579.866,68.962,579.761,68.564,579.761,68.088z M599.006,81.17c0-0.746-0.154-1.442-0.461-2.087
		c-0.307-0.644-0.751-1.187-1.332-1.629c-0.647-0.542-1.374-0.95-2.182-1.221c-0.808-0.272-1.729-0.407-2.762-0.407
		c-0.97,0-1.859,0.127-2.667,0.381c-0.808,0.255-1.487,0.654-2.036,1.196c-0.646,0.442-1.123,0.993-1.43,1.654
		c-0.307,0.662-0.46,1.366-0.46,2.113c0,1.527,0.613,2.791,1.842,3.792c1.228,1.001,2.812,1.502,4.751,1.502
		c1.033,0,1.955-0.135,2.762-0.407c0.808-0.272,1.535-0.645,2.182-1.12c0.581-0.44,1.025-0.983,1.332-1.628
		C598.852,82.663,599.006,81.951,599.006,81.17z M610.689,61.929c0-0.509,0.201-0.856,0.605-1.043
		c0.404-0.186,0.832-0.28,1.285-0.28c0.42,0,0.824,0.094,1.212,0.28c0.388,0.187,0.582,0.534,0.582,1.043v46.217
		c0,0.475-0.194,0.848-0.582,1.12c-0.388,0.272-0.792,0.407-1.212,0.407c-0.453,0-0.881-0.135-1.285-0.407
		c-0.404-0.272-0.605-0.645-0.605-1.12V61.929z"/>
</g>
<rect x="3.084" y="9.932" style="fill:#FFFFFF;" width="39.115" height="13.039"/>
<path style="fill:#FFFFFF;" d="M22.642,29.49c-10.801,0-19.558,8.757-19.558,19.557c0,10.802,8.756,19.558,19.558,19.558
	c10.801,0,19.557-8.756,19.557-19.558C42.199,38.247,33.443,29.49,22.642,29.49z M22.642,55.566c-3.601,0-6.519-2.919-6.519-6.519
	c0-3.599,2.918-6.518,6.519-6.518c3.6,0,6.52,2.919,6.52,6.518C29.162,52.647,26.242,55.566,22.642,55.566z"/>
<path style="fill:#FFFFFF;" d="M68.276,29.49c0,0-19.557,0-19.557,19.557c0,0,0,19.558,19.557,19.558c0,0,6.52,0,6.52,6.519v19.558
	h13.039V75.124c0,0,0-19.558-19.559-19.558c0,0-6.519,0-6.519-6.519c0,0,0-6.518,6.519-6.518h19.559V29.49H68.276z"/>
<path style="fill:#FFFFFF;" d="M94.354,3.413v39.116h39.115V3.413H94.354z M120.43,29.49h-13.038V16.452h13.038V29.49z"/>
<path style="fill:#FFFFFF;" d="M133.469,55.566h-19.558c0,0-19.557,0-19.557,19.558v13.038c0,0,0,19.559,19.557,19.559h19.558
	V94.682h-19.558c0,0-6.519,0-6.519-6.52V75.124c0,0,0-6.519,6.519-6.519h19.558V55.566z"/>
<polygon style="fill:#FFFFFF;" points="139.989,3.413 139.989,16.452 166.065,16.452 166.065,42.529 179.103,42.529 179.103,3.413 
	"/>
<path style="fill:#FFFFFF;" d="M139.989,29.49h13.037v19.557c0,0,0,6.519,6.52,6.519c0,0,19.558,0,19.558,19.558
	c0,0,0,19.558-19.558,19.558h-19.556V81.644h19.556c0,0,6.52,0,6.52-6.52c0,0,0-6.519-6.52-6.519c0,0-19.556,0-19.556-19.558V29.49z
	"/>
</svg>
