<?xml version="1.0" encoding="utf-8"?>
<!-- Generator: Adobe Illustrator 18.1.1, SVG Export Plug-In . SVG Version: 6.00 Build 0)  -->
<svg version="1.1" id="Layer_1" xmlns="http://www.w3.org/2000/svg" xmlns:xlink="http://www.w3.org/1999/xlink" x="0px" y="0px"
	 viewBox="0 0 16 16" style="enable-background:new 0 0 16 16;" xml:space="preserve">
<path d="M0,0v16h16V0H0z M8,13.5H5.7v-1.6H8c0,0,0.8,0,0.8-0.8c0,0,0-0.8-0.8-0.8c0,0-2.3,0-2.3-2.3V5.7h1.6V8c0,0,0,0.8,0.8,0.8
	c0,0,2.3,0,2.3,2.3C10.3,11.1,10.3,13.5,8,13.5z M10.3,7.3H8.8V4.1H5.7V2.5h4.7V7.3z"/>
</svg>
